<svg xmlns="http://www.w3.org/2000/svg" viewBox="0 0 1917.55 375.68"><defs><style>.cls-1{fill:#fff;opacity:0.45;}</style></defs><title>Asset 8</title><g id="Layer_2" data-name="Layer 2"><g id="Layer_1-2" data-name="Layer 1"><path class="cls-1" d="M1917.55,135V375.68H0V69.59S8.3,62.8,18,55.76s20.85-17,26.52-15.38c2.24-5.69,10.21-10.93,19-21.73,8.79-7.8,18.39-24.58,23.91-16.51,8.48,8.49,19.09,13,32.14,19A110.34,110.34,0,0,0,141,37.65a100.55,100.55,0,0,0,25.35,10.52c5.63,3.5,12.27,2.62,19.63,11,7.37,9.49,15.45,6.43,24,12.11,8.51,2.31,17.45,9,26.52,14.91,9.07.41,18.27,10.21,27.31,12.24,18.08,10.46,35.52,26.83,50,23.74,14.44,2.09,25.89,12.25,32,12.86,4.07,1.11,10.53,3.34,18.55,5.16a101.53,101.53,0,0,0,27.9,2.66c10.3-3.89,21.3-4.83,32.18,4.29,10.88-4.73,21.63,5.69,31.4,4.06,9.77-9,18.57,0,25.55,3.48,7,3.36,12.14,4.74,14.64,2.53,3.74-6.59,16.1-2.08,33.14,4.26,17,3.05,38.76,13.26,61.24,6.45,11.23,8.31,22.65,9.52,33.77,9s21.94-2.66,31.95-1.12,19.25.77,27.18,4.28c7.94-1.75,14.58,3.75,19,4.8,7,3.46,13.82,5.08,20,7,7.86-.15,15.11,0,21.22,3.45,8.53-1.07,15.94-.62,22.62,3,8.05-2.56,15.38-2,22.64,2.14,7-1.72,14-.29,21,1.93,1.36.06,2.71.16,4.07.28,6.06.53,12-.45,17.91-1.59,3.9-.74,8.44,6.39,13.46,4.41,6.42,3.88,13.62,10.32,21.29-.54,8.25-1.33,18.71,8,30.24,0a74.78,74.78,0,0,1,36.68-3.06c12.54,1.91,25-2.35,36.29-3,7.53,3.29,13.18-2.84,16.1,5,4.83,6.54,16.63,4.14,31.3,9.58,14.68,2.59,32.23,2.85,48.55,1.85,7.79-4.88,15.78,1.34,23.51-3.85,7.73-5.52,15.2-.63,22,2.24,13.5,3.89,24.14-6.53,28.26-8.18,2.81,1.7,8.43.63,16.08-5.71,4.51-3.74,10.58-6.31,17.24-7.75,9.38-2,20.11-7.77,31.51-15.72,15.65-15.71,32.59-11.38,49.07-16.79,16.47.85,32.5-11.68,46.34-14.08a94.34,94.34,0,0,0,18.89-7.87,185.62,185.62,0,0,0,19.15-12c12.85-11,25.92-18.62,39.26-30.39,13.35-14.58,27-15.83,41-28.78,14-4.19,28.34-16.77,43.12-15,1.77-4.69,3.55-.39,5.34.68,9,7.6,17.69-.22,26,2.93,8.33-4.15,16.32-5,24,.48,13.41.33,25.87-.43,37.48-1.26s22.38-1.79,32.39-2.05c0-5.31,0,2.47,0,0,6,4.31,11.81,10.3,17.31,2,5.49-.63,10.72,5.32,15.71,5.44,12-2.78,26,5.32,41.2,11.74,15.26,4.27,31.75-.89,48.68,5.74,16.93-3.63,34.29,1.88,51.27,10,17-2.8,33,4.81,47.05,13.09,14.1,8,26.3,6.46,35.74,8.76s16.09,4,19.08,5.35C1871.2,118.27,1917.55,135,1917.55,135Z"/></g></g></svg>