<svg xmlns="http://www.w3.org/2000/svg" viewBox="0 0 1917.55 428.98"><defs><style>.cls-1{fill:#fff;opacity:0.5;}</style></defs><title>Asset 6</title><g id="Layer_2" data-name="Layer 2"><g id="Layer_1-2" data-name="Layer 1"><path class="cls-1" d="M1881.26,13.4c-18.7,10.91-38.53,14.14-43,17.89-2.24-2.79-10.25,1.44-21,7.61a8.76,8.76,0,0,1-3.64,5.49c-16.9,13.14-40.48,19.27-61.73,28a118.64,118.64,0,0,1-25.95,7.31c-2.06,2.53-6.21,4.45-11.93,1.52-10,.92-20.22,1.07-31,1.06a7.34,7.34,0,0,1-1.93,0h-1.42a16.53,16.53,0,0,1-8.81-2.23c-2.09.23-4.21,1.4-6.35,4.44-8.62.55-17.61,6.27-26.62,11.12s-18,8.83-26.75,5.91c-17.42,27.09-33.52,12.3-45.51,31.61-8,10.46-15.55,28.62-22.77,22.37-7.21,3.1-14.08,15.45-20.67,14.82a156.74,156.74,0,0,1-19,9.63c-6.11,2.61-12,4.75-17.78,6.81-11.54-1.76-22.56,13-33.63,14.7-7.38,3.91-16.66,8.37-27,14.5-10.33,9.76-21.71,13.6-33.3,15.94-9.11,12.79-18.34,14.82-27.29,15.69-.26,2.73-2.27,5.38-6.72,7.15-7.53,3-12.88,8-19.93,11.47-7.36,3.66-17.2,4.57-24.2,8.42l-.27.14c-5.34,20-11.85,13.71-19.17,11.32-7.74-6.48-16.4-4.28-25.55,3.69-9.16,3.7-18.81,3.83-28.55,4.52s-19.56,1.93-29,7.85c-19-5.14-36.62,6.12-49.6,3.9-4.3,1.74-9.44,6.51-15.22,3.08-11.17,3.44-23,5.27-35.15,7.14-18.55,2.86-35.56,8.4-53.33,13a17.51,17.51,0,0,1-7.56.37c-10.7,5.91-20.93,13.57-30.13,7.59-14.74.68-26.83-3.56-34,5.94-3.57-12.58-8.61-13.48-14.77-.37-6.16-10.07-13.45-2.51-21.51.79-8.06-4.51-16.9,15.41-26.17,3.67-9.26-9.77-19,3.34-28.73-3-9.78,8.42-19.64-5.22-29.23,1.28-9.59-3.11-18.92-6.62-27.63-1.14a108.63,108.63,0,0,1-24,0c-7.14-3.23-13.31,3.46-18.18-1.25-6.5-3-14.07-2.22-22.28-4-8.21-6.17-17.06,1.19-26.11-4.72-9,.61-18.28-7.08-27.27-3.74a9.3,9.3,0,0,0-2.38-2.34A16.69,16.69,0,0,1,705.39,331c-2.81,1-5.57.73-8.25-4.08-10.62-6.66-28.37-6-40.53-11.78a78.68,78.68,0,0,1-30.13-24.85,18.52,18.52,0,0,0-3.37.6C615.76,282,608,275,600.23,281.53c-7.72-8.86-15.38-7.77-22.43-8.4-7.06-18.91-13.52-8.24-18.87-9.75s-9.58-1.31-12.18.51c-3.9-1.3-12-8.54-22.93-4.95-10.91-2.16-24.6-5-39.63-11.55-7.52-3.8-15.38-6.82-23.39-7.61-8-5.23-16.19,6.69-24.34-8.48-8.15,4.21-16.27,8-24.2-3.89a87.41,87.41,0,0,1-23-14.66c-13,3.28-25.08-15.16-36.45-13.53-11.37-10.42-22.1-1.1-32.54-9.27-10.44-6.54-20.61-10.94-30.87-8.88-7.7,3.35-15.46-7.17-23.43-7-8-8.35-16.15-6-24.71-14-6.53-11.42-12.6-9.3-18-14.68-5.44-2.81-10.24-3.64-14.22-2.81-8-8.16-12.68-17-12.68-6.31,0,3.08-9.74-4.63-22.72-13.75-13-18.79-29.21-17.6-42.2-25.54-13-4.46-22.72-12.09-22.72-13.75,0,13.17-12.08,14.54-28.18-6.41-16.1-4.56-36.23-8.25-52.33-11.91L0,58.47V429H1917.55V0S1900,6.32,1881.26,13.4Z"/></g></g></svg>