<svg xmlns="http://www.w3.org/2000/svg" viewBox="0 0 1917.55 267.95"><defs><style>.cls-1{fill:#fff;opacity:0.75;}</style></defs><title>Asset 7</title><g id="Layer_2" data-name="Layer 2"><g id="Layer_1-2" data-name="Layer 1"><path class="cls-1" d="M1917.55,106.41V268H0V14.58s13.29-3.26,28-6.71S58.83.78,64.51,0C69,11.8,76.4-9,87.44,6.39c8.48,1.62,19.09,9.25,32.14,14.32,13,1.16,28.55,26.55,46.8,20.32,5.63,19,12.27-6.34,19.63,8,7.37-8.87,15.45-6.8,24,9.43,8.51-8.72,17.45-.8,26.52,10.19,9.07-2,18.27-4.06,27.31,10.25,9-13.22,17.92-7.85,26.35,5,8.42-1.25,16.39,14.17,23.61,12.82,14.44,13.19,25.89,10.6,32,9.68,5.42-5.94,15.11,10.85,27.06,3.77,12-18,26.19,4.12,40.68,4.27,14.5-8.16,29.26,4,42.29,4.12,9.77-2.17,18.57,7.83,25.55,2.62,7-4.13,12.14-5,14.64,1.91,1.87-4.61,5.9,13,11.58,5,5.69-4.75,13,13.23,21.56-1.76,8.52-4.89,18.21-3.06,28.58-.31s21.42,6.41,32.66,5.17c11.23-2.33,22.65,3.34,33.77,4.37,11.12,5.27,21.94,4,31.95,1.58,10,7.42,19.25.94,27.18,5.32,7.94-8.7,14.58,5.9,19.45,1.18,6.49,1.53,13.32,7.83,20.35,6a41,41,0,0,0,21.6.36c7.32-7.82,14.73,3.28,22.1,4.65s14.69,1.83,21.84-.85c14.32-.48,28-.33,39.95,4.45,4.55,2.42,10.19,2.24,16.61,1.2,6.42,6.43,13.62,2.43,21.29-.41,15.39-3.07,29.72.19,48.2-1,9.24-.6,20.72,5.72,30,3,9.32-1.94,11.05-.54,19.5,1.13,7.54-.37,31,9.47,33.87,2.44,4.83-4,8.09,5.52,22.77-1.26,8.7,4.84,21.58,2.26,44.77,3.53,20.83,1.14,32-6.22,45.46-1.22,13.5-1.6,24.14,8.68,28.26-6.15,3.64,7.56,12-1.3,23.4-9.64,5.69,4,12.13,3.53,19.11-1.45,7-2.83,14.49,0,22.32-10.87,7.83,1.64,16-5.52,24.22-6.43,8.25-7.37,16.61-2.89,24.85-6.21,8.23-11.17,16.36-7.33,24.16-5.7,7.79-13.92,15.26.84,22.18-4.89,12.52-2.06,25.18-3.09,38-15,12.85-9.67,25.92-13.2,39.26-22.88,6.67-2.64,13.42-2.84,20.24-5s13.73-6.24,20.72-16.68c7,5.25,14.08,2.4,21.26-7.52,7.19-7,14.47-8.2,21.86-3.8,1.77-4,3.55,8.87,5.34.52,9,5.5,17.69.63,26,2.2,8.33,8.57,16.32-6.47,24,.36,13.41-.52,25.87,10.26,37.48-1a40.66,40.66,0,0,1,16.8-4.75,33,33,0,0,1,15.59,3.21c0,3.78,0-4,0,0,6-2.26,11.81-1.83,17.31-3.79,5.49-4.66,10.72,1.16,15.71,9.36,6,12.6,12.46-1.66,19.36,5.47,6.9,5.58,14.22,3.48,21.84,3.37,15.26-9,31.75-3.39,48.68,4.32,16.93-6.25,34.29,8.67,51.27,7.53A126.9,126.9,0,0,0,1785,78.87c7.88,2.32,15.4,2,22.44,1.33,7-13.49,13.62,1.57,19.62,2.15,6,.2,11.4,17.39,16.12,4.44,9.43-6.5,16.09,7.68,19.08,4,4.5-2.35,18.33,3.57,31,8.92C1906,92.94,1917.55,113.51,1917.55,106.41Z"/></g></g></svg>