<svg xmlns="http://www.w3.org/2000/svg" viewBox="0 0 1917.56 201.36"><defs><style>.cls-1{fill:#fbfbfb;}</style></defs><title>Asset 5</title><g id="Layer_2" data-name="Layer 2"><g id="Layer_1-2" data-name="Layer 1"><path class="cls-1" d="M1917.56,37s-24.84-11.57-24.84,0c0-11.88-22.09,26.07-22.09,13.8,0-7.27-9.43-5.12-18.86,2.76a24.35,24.35,0,0,1-1.42,2.12s0,0,0-.06c-.85-1-1.4-.38-1.58.43a4.22,4.22,0,0,0,0,1.5,10.26,10.26,0,0,1-3.28,2.31c-.16-1.32-.09-2.71-1.43-3.19-1.6-.57-1.14,2-1,3a2.52,2.52,0,0,1,0,.71,8.09,8.09,0,0,1-3.44-.61c-.1.28-.24.53-.35.8a3.45,3.45,0,0,1-.07-.72,3.49,3.49,0,0,0-.75-3c-.53-.55-.61-.35-1.1-1a8.61,8.61,0,0,1-1.39-2.69c-.15-.61.06-1.45-.57-2-.23-.2-1.42-.54-1.6-.3s.11.63.13.8a7.58,7.58,0,0,1,.18,1.13c0,.26-.34.41-.37.67s.77,2.57,0,2.25c-1.28-.54.85-2.86-1.24-2.91-1,0-1.28,2.68-1.69,2.52-.57-.22-.65-2.58-.75-3.1-.16-.88-.09-3.17-.77-3.82-1.68-1.61-2,1.9-1.94,2.59.07,1.84.35,3.68.36,5.51a14,14,0,0,1-.31,4.16c-.64,2.08-1-.4-1.15-1.42s0-3.36-1.23-4.16c-1.56-1-1.47,2-1.36,3,.36,3.18,1.75,5.89,1,9-.19.79-.45,2.91-1.4,2.21a2.47,2.47,0,0,1-.65-1.86c.18-1,.8-1.42.69-2.68a4,4,0,0,0-.42-1.8c-.63-.71-1.71-.37-2.28-1.12-.08-.11-.39-1.35-.44-1.51a23.41,23.41,0,0,1-.51-2.6c-.13-.76-.27-1.54-.39-2.29-.16-1-.06-2-.26-3a7.05,7.05,0,0,0-.72-2.33c-1-.8-1.49.77-1.5,1.43,0,1.88.33,4,.43,5.92.06,1.15.24,1.35-.94,1,0,0-1.45-.29-1.68-.11-.08-.51,1.05-1.93,1.19-2.43a13.26,13.26,0,0,0,.36-2.46c.08-1.1-.27-4.06-2.07-2.78-1.14.82-.68,3.18-1.77,4s-1.09-1-1.06-1.76a23.54,23.54,0,0,0-.4-4.71c-.18-1.1,0-3.93-1-4.72-2.39-1.92-1.47,7.29-2,7.6-.11.06-1.89-3.08-3-2.47s.12,1.33.35,1.9c.44,1.13-.09.12-.48.64-.71.93-.5,1.5.36,2.17.48.36.77.49,1,1s.44,2.48,0,2.61c.33-.1-1.5-1.62-1.64-1.72a3.46,3.46,0,0,1-1.28-2.19c-.22-.67-1.21-4.32-2.11-3.6s-.48,1.72-.6,2.81c-.06.48-.5,1.79-1.25,1.67-.59-.09-.94-1.56-1.1-2.07-.5-1.57-.41-3.22-.85-4.78-.2-.74-1.29-2.94-2.34-2.21-.49.34-.23,2-.15,2.53.25,1.74.56,3.49.83,5.23.08.51.52,1.62.33,2.06-.71,1.68-2.1-1.13-2.61-1.51-1-.77-2.23-.19-1.67,1.1.45,1,2.72,2.2,1.68,3.22-.29.29-.84,0-1.14.49s.06,1.27-.08,1.75c-.42,1.51-1,0-1.6-.68s-1.12-.75-1.38-1.82a20.64,20.64,0,0,0-.84-3.36c-.46-1.08-1.18-2.31-2-1s.06,2.46.43,3.76a11.47,11.47,0,0,1,.64,4.17c-.25,1.18-.86-.08-1.28-.81-.56-1-1.16-3-2.77-2.53-2,.65,0,2.25-.36,3.16-.22.5-1,.43-1.22,1s.47,1.13.49,1.58.47.44-.18.74-.89-.6-1.15-1.12c-.6-1.18-1.13-2.84-2.28-3.59-1.52-1-1.68,1.18-1.23,2.29.57,1.43,3.23,6.41-.46,5.94-.84-.11-.53.11-.9-.72a9.73,9.73,0,0,1-.41-2.29,17.42,17.42,0,0,1-.13-4.38c.08-.5.33-.67.2-1.15a5.85,5.85,0,0,0-1.59-1.8c-1.33-.78-1.59,1.09-1.9,2.11-.24.8-.28,2-1.06,1.32-.47-.39-.26-3.69-.4-4.5-.19-1.13-.29-3-1.57-3.49-1-.37-1,.19-1.76-.54a9.33,9.33,0,0,1-1.25-2.1c-.36-.59-.16-.94-1-.73-.59.15-.46,0-.61.76-.2,1,.41,2.81.55,3.76.37,2.45.91,5.75.16,8.15-.2.66-1-.88-1-.92a9.66,9.66,0,0,0-.57-1.85c-.3-.55-.64-1.09-.93-1.65-.42-.8-.49-2-1-2.69-1.14-1.72-2,.39-1.88,1.67s1,2.78,1.25,4.2c.21,1.1.39,2.93-.92,1.93-.83-.64-.75-1.28-1.91-1.18a2.61,2.61,0,0,0-2.07,1.54c-.5,1.44.59,3.33,1.19,4.57a23.66,23.66,0,0,1,1.54,4.35c.16.58,1.66,4.52.41,4.56,0,0-2.31-3.34-2.35-3.4a14.39,14.39,0,0,1-1.55-3.94c-.38-1.2-.81-5-2.46-5-1.38,0-1.32,2.43-1.3,3.29,0,1.79,1.18,3.4,1.75,5.07s0,2.7,1.08,3.92c.61.65,2.33,2,2.7,3.18-.54.07-1.09.11-1.66.14a11.56,11.56,0,0,1-1-1.45c-.65-1.15-2.35-4-3-.84a5.13,5.13,0,0,0,.09,2.2l-.24,0a6,6,0,0,0-.2-1.24,2.27,2.27,0,0,0-1.7-1.06c-.26,0-.73.29-.93.22-.41-.13-.45-.55-.81-.74-1.21-.61-1.43.6-1.55,1.65a26.78,26.78,0,0,1-2.83-1.16c-.24-1,.48-2,.16-3-.59-1.81-1.88-1.55-2.89-.28-.29.37-.62.77-.92,1.18-.48-.33-1-.6-1.44-1-.38.33-.76.59-1.13.9a2.79,2.79,0,0,1-.41-.61c-.18-.8.78-2.44,1.06-3.31.51-1.63,1-3.07-.44-4.15-.57-.43-2.85-1.79-3.35-.92.46-.79-.52-2.29-1.32-2.37-1.15-.11-1.31,1.46-2.29,1.36s-.6-1.71-.79-2.41c-.25-.93-.36-.83-1.57-1-2.36-.29-2.47,1.69-2.13,3.67.14.82-.06,2.63-.79,1.42-.57-1,.24-2.28-1.53-1.42a9.94,9.94,0,0,0-3.7,3.88c-.42.8-1,2.75-2.13,1.24-.6-.8,0-1.91.44-2.69a16.2,16.2,0,0,0,2.33-4.55c.17-.71.42-2.34-.14-2.81s-1.33,0-1.66.38c-.67.8-.86,2.19-1.36,3.11a7.86,7.86,0,0,1-1.46,1.92,28,28,0,0,0,.49-8.64c-.15-.94-.39-3.23-1.77-2.25-.94.67-.66,5.57-1.05,5.63-.59.09-2.13-9-2.37-9.94-.17-.66.09-.92-.59-1.09a3.87,3.87,0,0,0-1.41.39c-.72.45-.65.79-.71,1.67a22.07,22.07,0,0,0,.23,5.58c.13.7,1.12,4.55.93,6.63-.1-.1-.2-.21-.32-.32a1.19,1.19,0,0,0-1.51-.32c0-.08,0-.15-.07-.23.18-1.23.34-2.46.51-3.7a8.34,8.34,0,0,0,.15-3,5.13,5.13,0,0,0-.56-1.4,3.14,3.14,0,0,0-.3-.61.65.65,0,0,0-.51.11c-.63-.47-.43.12-.69-.62a14.94,14.94,0,0,1-.13-1.55c-.2-1-.5-1.57-1.35-1.4-2,.41-.29,4.24-.67,5.89.1-.43-.76-2.19-.85-2.7-.15-.8-.11-1.67-.25-2.46-.26-1.44-1.64-2.66-2.75-1.54-.19.2-.25.64-.45.86s-.47.27-.66.48a2.6,2.6,0,0,0-.73,1.6c-.08.61.57,4.89.09,5.13-.15.08-.24-.56-.44.07a2.83,2.83,0,0,0-.08,1.6,8.08,8.08,0,0,0,.76,2.1c.35.78,1.81,3,0,2.3-1.11-.46-.33-1.65-1-2.31-.45-.48-1.19.72-1.72.39s-.28-1.56-.36-2.14c-.16-1.28-.42-2.55-.6-3.81a3.64,3.64,0,0,0-.19-1.18c-.14-.28-.39-.24-.54-.49a6.59,6.59,0,0,1-.68-2.55c-.18-1-.34-2.43-1.56-1.65-.72.46-.81,1.23-.91,2.13a15.52,15.52,0,0,0,.14,4.26,6.3,6.3,0,0,1,.24,2.73c-.13.44-.45.56-.49,1.2,0,.4.43,1.15.2,1.57,0,0-.27.43-.32.32-.54-1.18-.8-2.61-1.43-3.76-.43-.78-1.51-1.37-2.19-.35a4.09,4.09,0,0,0-.08,2.63,7.39,7.39,0,0,1,.12,3.06c-.5,1.12-1.39.18-2-.34a3.75,3.75,0,0,0-1-.73c-.86-.36-.59.06-1.21.38-.34.17-.16.69-.57.11s.08-.81,0-1.3c-.1-.75-.43-1.22-1.08-.73-.14-1-.13-5.53-1.26-5.19-.63.18-.13.86-.33,1.31s-.56.4-.89.9c-.52.78.21,3.34-.55,3.73-1.39.72-1.57-6.48-1.66-7.44a24.52,24.52,0,0,0-1.08-5.27c-.24-.78-.26-1.13-.9-1.19a2.62,2.62,0,0,0-1.14.33c-.47.5-.22.61-.2,1.3,0,1,.92,10.13.46,10.33-.31.13-1.19-4.53-2-4.69-1.25-.23-.92,2-.82,2.93a28.86,28.86,0,0,0,2.29,7.74,4.59,4.59,0,0,1-1.51-1.07c-.59-.62-1-1.8-1.72-2.22a.83.83,0,0,0-1.32.44c-.32.7.23,2.09.52,2.66a10.86,10.86,0,0,0,2.76,3.09,2.3,2.3,0,0,1,.92,2.28c-.51,1.93-1.37.4-1.87-.14a5.55,5.55,0,0,0-3.64-1.83c-.77,0-.91.25-.9.62a1,1,0,0,0-.31-.08c-.24,0-.38.21-.55.34-.21-1.88-.74-3.49-2.4-2.16-.86.69-1,.67-1,1.6a6.14,6.14,0,0,0-1.37-.46c-.83-.15-.73.55-1.38.53a1.21,1.21,0,0,1-1-.58c-1.14-1.85,2.19-3,2.21-4.39,0-.93-1.14-1.65-2-1.63s-1,1.18-1.75,1.49c-1.07-2.64,3.18-2.9,1.19-5.72-.48-.69-2.22-1.78-2.88-1.5s-.63,2.2-.9,2.81c-.59-1,0-1.26-.2-2.14-.21-.71-.23-.63-1.07-1.1-2.43-1.37-1.7,0-2.74,1.06-.33.33-2.22,1.32-2.57.84s.46-.74.5-.92a7.92,7.92,0,0,0-.17-2.62,6.28,6.28,0,0,0-1.67-.42c-.45.14-.18,1.76-.75,1.73-.86,0-.74-.89-1-1.2a5,5,0,0,0-1.29-1.25c.09.22,0,.44.11.67-.29-.14-.62-.16-.91-.31.33.81-.35.78-.48,1.35s.31,1.25.28,1.77c0,.72-.66,1.14-1,1.75a15.9,15.9,0,0,0-.84,2,11.67,11.67,0,0,0-.62-1.38c.07-.21,2.35-.59.68-1.5-1.16-.64-1.21,1.36-1.79,1.64.29-.17-1.39-3-1.49-3.51a1.06,1.06,0,0,0,0,.14c-.11-.64-.39-1.36-.44-2,0-.17,0-.85.07-.73a21.37,21.37,0,0,1-.12-2.58c-1.41,0-.62-1.32-.38-1.7a7.45,7.45,0,0,0,.8-2.13c.41-1.43,1.33-3.28.64-5.12s-2.19-.6-2.54.19a11.65,11.65,0,0,0-.67,3.85c-.12-.72-.27-1.44-.37-2.15a6.12,6.12,0,0,0-.14-.82c0-.05.19-.13.15-.24-.1-.31-.46-.59-.62-.89-.41-.81-.18-2.89-.74-3.43a5.66,5.66,0,0,0-1.8-.35c-.61.41,0,3,.11,3.78a20.32,20.32,0,0,0,1.25,4.16c-.61-1.51-1.21-3-1.82-4.56a3.45,3.45,0,0,0-.69-1.33c-.54-.53-1.57-1-1.7-.24s1.19,3,1.42,3.9c.11.38,1.07,4.56,1.19,4.56a7,7,0,0,1-1.81-1.11c-1-.79-1-1.88-1.94-2.76-1.58-1.55-1.92-.63-2.05.55-.08.68-.08.88-.75,1.26a2.36,2.36,0,0,1-1.68.31,3.07,3.07,0,0,1-2.06-1.17,3.73,3.73,0,0,0-2.63-1.1c.33,1,.88,3.42.65,4.26-.12.41.44.79-.53.51-.72-.2-.27-.34-.3-.39a10.5,10.5,0,0,1-1.64-3.88c-.09-.51-.16-1-.26-1.53-.15-.85.06-.65-1-1.24a8.06,8.06,0,0,1-2.19-1.56c-.72-.77-.6-.9-.54-1.68s.26-.87-.69-1.07c-.39-.08-.85-.15-1,.23s.28,1.08.24,1.47-.42.72-.55,1.13a11.27,11.27,0,0,0-.2,2.56,21.33,21.33,0,0,1-1.87-7.31,3.07,3.07,0,0,0-.48-1.76c-.85-1-1.41-.37-1.58.43-.24,1,.25,2.55.45,3.71s.84,3.22.46,4.24c-.19.52.2.26-.43.41a3.36,3.36,0,0,1-1.88-.57c-.42-.44,0-1.1-.28-1.52s-.54-.25-.84-.54c-1.42-1.42-.1-4.36-2.17-5.11-1.6-.57-1.14,2-1,3,.33,1.91-1.08,1.74-1.52,3.33-.18.66.2,2.52-.57,2.52-.94,0-.51-2.29-1.29-2.8a11.91,11.91,0,0,1-.45-2.87,3.49,3.49,0,0,0-.75-3c-.53-.55-.61-.35-1.1-1a8.85,8.85,0,0,1-1.4-2.69c-.14-.61.07-1.45-.56-2-.23-.2-1.42-.54-1.6-.3s.11.63.12.8a6.51,6.51,0,0,1,.19,1.13c0,.26-.35.41-.37.67s.76,2.57,0,2.25c-1.28-.54.85-2.86-1.24-2.91-1,0-1.28,2.68-1.69,2.52-.58-.22-.66-2.58-.75-3.1-.16-.88-.09-3.17-.77-3.82-1.68-1.61-2,1.9-1.94,2.59.07,1.84.35,3.68.36,5.51a14.35,14.35,0,0,1-.31,4.16c-.64,2.08-1-.4-1.15-1.42s0-3.35-1.24-4.16c-1.55-1-1.46,2.05-1.35,3,.36,3.18,1.75,5.89,1,9-.19.79-.45,2.91-1.4,2.21a2.46,2.46,0,0,1-.65-1.85c.18-1,.8-1.43.69-2.69a4,4,0,0,0-.42-1.8c-.63-.71-1.71-.36-2.28-1.12-.08-.11-.39-1.35-.44-1.51a23,23,0,0,1-.51-2.6c-.13-.76-.27-1.53-.39-2.29-.17-1-.06-2-.26-3a7.05,7.05,0,0,0-.72-2.33c-1-.8-1.49.77-1.5,1.43,0,1.88.33,4,.43,5.92.06,1.15.24,1.35-.94,1.05,0,0-1.45-.29-1.68-.11-.08-.51,1.05-1.92,1.19-2.43a13.26,13.26,0,0,0,.35-2.46c.08-1.09-.26-4.06-2.06-2.78-1.14.82-.69,3.18-1.77,4s-1.09-1-1.06-1.76a23.54,23.54,0,0,0-.4-4.71c-.18-1.1,0-3.93-1-4.72-2.39-1.92-1.47,7.29-2,7.6-.1.07-1.88-3.08-3-2.47s.12,1.33.34,1.9c.45,1.13-.08.12-.47.64-.71.93-.5,1.5.36,2.17.48.36.77.49,1,1s.44,2.48,0,2.61c.33-.1-1.5-1.62-1.64-1.72a3.46,3.46,0,0,1-1.28-2.19c-.22-.67-1.21-4.32-2.11-3.6s-.48,1.72-.6,2.81c-.06.48-.5,1.79-1.25,1.67-.59-.09-.94-1.55-1.1-2.07-.5-1.57-.41-3.22-.85-4.78-.21-.74-1.29-2.94-2.34-2.21-.5.34-.23,2-.15,2.53.25,1.74.56,3.49.83,5.23.08.51.52,1.62.33,2.06-.71,1.68-2.1-1.13-2.61-1.51-1-.77-2.23-.19-1.67,1.1.44,1,2.72,2.2,1.68,3.22-.29.29-.84,0-1.14.49s0,1.27-.08,1.75c-.42,1.51-1,0-1.6-.68s-1.12-.74-1.39-1.82a19.62,19.62,0,0,0-.83-3.36c-.46-1.08-1.18-2.31-2-1s.06,2.46.43,3.76a11.51,11.51,0,0,1,.64,4.17c-.25,1.18-.86-.08-1.28-.81-.56-1-1.17-3-2.77-2.53-2,.65,0,2.25-.36,3.16-.22.5-1,.43-1.22,1s.46,1.13.49,1.58.47.44-.18.74-.89-.6-1.15-1.12c-.6-1.18-1.13-2.84-2.29-3.59-1.52-1-1.67,1.18-1.23,2.29.57,1.43,3.24,6.41-.45,5.94-.84-.11-.53.11-.9-.72a9.73,9.73,0,0,1-.41-2.29,17.42,17.42,0,0,1-.13-4.38c.08-.5.33-.67.2-1.15a5.76,5.76,0,0,0-1.6-1.8c-1.33-.78-1.58,1.09-1.89,2.11-.24.8-.28,2-1.06,1.32-.48-.39-.26-3.69-.4-4.5-.19-1.13-.29-3-1.57-3.49-1.05-.37-1,.19-1.77-.54a9.67,9.67,0,0,1-1.24-2.1c-.37-.59-.17-.94-1.05-.72-.59.14-.46,0-.61.75-.2.95.41,2.81.55,3.76.37,2.45.91,5.75.16,8.15-.2.66-1-.88-1-.92a9.66,9.66,0,0,0-.57-1.85c-.3-.55-.64-1.09-.94-1.65-.41-.8-.48-2-1-2.69-1.14-1.72-2,.39-1.89,1.67s1,2.78,1.26,4.2c.2,1.1.39,2.93-.93,1.93-.83-.64-.74-1.28-1.9-1.18a2.61,2.61,0,0,0-2.07,1.54c-.5,1.44.59,3.33,1.19,4.57a23.5,23.5,0,0,1,1.54,4.36c.16.57,1.66,4.51.41,4.55,0,0-2.31-3.34-2.35-3.4a14.39,14.39,0,0,1-1.55-3.94c-.38-1.2-.82-5-2.46-5-1.38,0-1.32,2.43-1.3,3.29,0,1.79,1.17,3.4,1.75,5.08.51,1.52,0,2.69,1.08,3.91.61.65,2.33,2,2.7,3.18-.54.07-1.1.11-1.66.14a10.59,10.59,0,0,1-1-1.45c-.65-1.15-2.35-4-3-.84a5.13,5.13,0,0,0,.09,2.2l-.24,0a6.84,6.84,0,0,0-.2-1.24,2.27,2.27,0,0,0-1.7-1.06c-.26,0-.73.29-.93.22-.41-.13-.45-.55-.81-.74-1.21-.61-1.43.6-1.55,1.65a26.78,26.78,0,0,1-2.83-1.16c-.24-1,.48-2,.16-3-.59-1.81-1.89-1.56-2.89-.29-.29.37-.62.77-.92,1.18-.48-.33-1-.6-1.44-1-.38.33-.76.59-1.13.9a2.79,2.79,0,0,1-.41-.61c-.18-.8.78-2.44,1-3.31.51-1.63,1-3.07-.43-4.15-.57-.43-2.85-1.79-3.36-.92.47-.79-.51-2.29-1.31-2.37-1.15-.11-1.31,1.46-2.29,1.36s-.6-1.71-.79-2.41c-.25-.92-.36-.82-1.57-1-2.37-.29-2.47,1.69-2.13,3.67.14.82-.06,2.63-.79,1.42-.57-1,.24-2.28-1.53-1.42a9.87,9.87,0,0,0-3.7,3.88c-.42.8-1,2.75-2.13,1.24-.6-.8,0-1.91.44-2.69a16.47,16.47,0,0,0,2.33-4.55c.17-.71.42-2.34-.14-2.81s-1.33,0-1.66.38c-.67.8-.86,2.19-1.36,3.12a8,8,0,0,1-1.46,1.91,28.31,28.31,0,0,0,.49-8.64c-.15-.94-.39-3.23-1.77-2.25-.94.67-.66,5.57-1,5.63-.6.09-2.13-9-2.37-9.94-.17-.65.09-.92-.59-1.09a3.82,3.82,0,0,0-1.41.39c-.72.45-.65.79-.72,1.67a22.54,22.54,0,0,0,.24,5.58c.12.7,1.12,4.55.93,6.63l-.32-.32a1.19,1.19,0,0,0-1.51-.32c0-.08,0-.15-.07-.23.18-1.23.34-2.46.51-3.7a8.34,8.34,0,0,0,.15-3,4.84,4.84,0,0,0-.57-1.4,2.63,2.63,0,0,0-.29-.61.65.65,0,0,0-.51.11c-.64-.47-.43.12-.69-.61a11.19,11.19,0,0,1-.13-1.56c-.2-1-.5-1.57-1.35-1.4-2,.41-.29,4.24-.67,5.89.1-.43-.76-2.19-.85-2.69-.15-.81-.11-1.68-.25-2.47-.26-1.44-1.64-2.66-2.75-1.54-.2.2-.25.65-.45.86s-.47.27-.66.48a2.6,2.6,0,0,0-.73,1.61c-.08.6.57,4.88.09,5.12-.15.08-.24-.56-.44.07a2.83,2.83,0,0,0-.08,1.6,8,8,0,0,0,.76,2.1c.35.78,1.81,3.05,0,2.31-1.11-.47-.33-1.66-.95-2.32-.45-.48-1.2.72-1.72.39s-.28-1.56-.36-2.14c-.17-1.28-.42-2.55-.6-3.81a3.64,3.64,0,0,0-.19-1.18c-.14-.28-.39-.24-.54-.49a6.59,6.59,0,0,1-.68-2.55c-.19-1.05-.34-2.43-1.56-1.65-.72.46-.81,1.23-.91,2.13a15.52,15.52,0,0,0,.14,4.26,6.3,6.3,0,0,1,.24,2.73c-.13.44-.45.56-.49,1.2,0,.4.43,1.15.2,1.57,0,0-.27.43-.32.32-.54-1.18-.8-2.61-1.43-3.76-.43-.78-1.51-1.37-2.19-.35a4.09,4.09,0,0,0-.08,2.63,7.56,7.56,0,0,1,.12,3.06c-.5,1.12-1.39.18-2-.33a3.67,3.67,0,0,0-1-.74c-.85-.36-.58.06-1.2.38-.34.17-.16.69-.57.11s.08-.8,0-1.3c-.1-.75-.43-1.22-1.08-.72-.14-1-.13-5.54-1.26-5.2-.63.18-.13.86-.33,1.31s-.56.4-.89.9c-.52.78.21,3.35-.55,3.73-1.4.72-1.58-6.47-1.66-7.44a24.52,24.52,0,0,0-1.08-5.27c-.24-.78-.27-1.13-.91-1.19a2.58,2.58,0,0,0-1.13.33c-.47.5-.22.61-.2,1.3,0,1,.92,10.13.46,10.33-.31.14-1.19-4.53-2-4.69-1.25-.23-.92,2-.82,2.93a28.86,28.86,0,0,0,2.29,7.74,4.45,4.45,0,0,1-1.51-1.07c-.59-.61-1-1.8-1.72-2.22a.83.83,0,0,0-1.32.44c-.32.7.23,2.09.51,2.66a11,11,0,0,0,2.77,3.09,2.3,2.3,0,0,1,.92,2.28c-.51,1.93-1.37.4-1.87-.14a5.55,5.55,0,0,0-3.64-1.83c-1.52.05-.62.87-.83,2-.27,1.46-.83-.11-.91-.93-.18-2-.7-3.76-2.42-2.38-.87.7-1,.66-1,1.62,0,.74.66,2-.06,2.59s-1.18-.82-2-.19c-.59.45-1,2.27-.46,2.79-.58-.56-2,1.73-2.33,2.38-.86,1.65-.15,2.75.6,4,.4.68,1.48,1.75,1.53,2.57a11.27,11.27,0,0,1-.49,1.77c-.5.14-1,.21-1.5.31-.34-.28-.72-.53-1.06-.77-1-.65-1.87-.35-2.06,1.17a23,23,0,0,1-7.64-1,6.1,6.1,0,0,0-.13-1.3c-.18-.79-.68-3.06-1.73-2.44-.64.39-.81,1.56-.83,2.78-.53-.23-1-.45-1.5-.68a3.41,3.41,0,0,0-.36-1.71,1.58,1.58,0,0,0-1.92-.51,1.24,1.24,0,0,0-.62.53,7.11,7.11,0,0,1-1.2-.93,15.26,15.26,0,0,1-.16,2.65,5.31,5.31,0,0,1-.36-1.72c-.12-1.4.2-3.06,0-4.36s-1.32-2.76-1.81-.7c-.2.84,0,1.94-.13,2.85-.09.64-.24,1.27-.35,1.91a11.12,11.12,0,0,0,0,1.91s-.28,1.79-.59,1.28c-1.11-1.87-1.44-5.09-1.71-7.47a15.88,15.88,0,0,0-.42-3.65c-.28-.59-.15-.54-.64-.42-.72.19-.49.41-.64,1.11a12.8,12.8,0,0,1-.48,2.42c-.41,1-.51.46-1.23,1.23-.89.95-.53,2.72-.43,3.83.08.78,1,3.69.71,4.24-.45.9-.74-.13-1.11-.76-.47-.79-1.08-2.39-1.93-1.13a7.78,7.78,0,0,0-.83,2.28c0,.49.25.54.42,1a11.71,11.71,0,0,1,.55,2c-.54,0-1.12.1-1.69.17v-.08c.1-1.18-.51-3.09-1.46-1.58a5.41,5.41,0,0,0-.66,2c-.82.15-1.65.33-2.51.57,0-.91.55-2.41-.87-2.23-1.23.16-1.35,1.88-1.52,3-.38.15-.76.28-1.15.45a22.27,22.27,0,0,1-.16-2.89c0-1.32.36-2.75-.52-3.57s-1.22.53-1.34,1.69a24.69,24.69,0,0,0,.12,3.36c0,1.07-.37,1.34-.66,2.18-.08.22-.14.48-.21.74-.27.17-.55.39-.83.58a.88.88,0,0,1-.06-.1c-.21-.37-.15-1.26-.45-1.55s-.71.14-1,0c-1-.53.47-2.44.58-3.55.14-1.37-.91-1.44-1.56-.35-.31.54-.76,3.6-1.7,2.35a6.47,6.47,0,0,1-.21-2c-.19-1.67-.35-3.35-.55-5-.06-.51-.23-2.1-.69-2.22-1-.25-1.34,2.13-1.34,2.87,0,1.56.47,3,.44,4.61,0,.52,0,2-.4,2.28s-1.21-.64-1.36-1c-.35-.94-.12-2-1.12-2.31s-.82,3.33-.84,4a4.07,4.07,0,0,1-.5,2.44c-.09.14-1.18,2.16-.9,2.13-.37,0-.66-1.93-.59-2.35a3.13,3.13,0,0,1,.57-1.25c.53-.91.56-1.5-.21-2.08-.43-.32-.62.77-.53-.41.05-.59.77-1.69-.16-1.82s-1.7,3.3-1.8,3.28c-.52-.09-1.92-8.65-3.37-6.09-.6,1,.2,3.52.31,4.56a24.47,24.47,0,0,0,.78,4.37c.2.67.7,2.34-.44,1.95s-1.24-2.63-2.33-3c-1.74-.54-1.33,2.24-1,3.19a12.33,12.33,0,0,0,.87,2.1c.24.43,1.64,1.42,1.54,1.88.08-.4-1.36.59-1.34.58-.88.67-.78.42-1-.63-.37-1.78-.58-3.8-1-5.48-.16-.58-1-1.81-1.54-.77a7.5,7.5,0,0,0,0,2.32c.08,1,.4,1.87.5,2.82.08.72.15,1.47.23,2.2A23.37,23.37,0,0,1,1350,84c0,.16,0,1.39,0,1.51-.28.88-1.22.91-1.57,1.76a4.52,4.52,0,0,0,.09,1.77c.22,1.18.8,1.32,1.19,2.22a2.12,2.12,0,0,1,.11.49c-.46.29-.91.59-1.34.85-.2-.36-.37-.76-.5-1-1.37-2.62-.89-5.52-1.36-8.51-.14-.94-.79-3.72-1.81-2.31-.81,1.12-.13,3.11,0,4.15s.42,3.32-.59,1.64a14.09,14.09,0,0,1-1.24-3.66c-.42-1.65-.64-3.39-1-5.06-.15-.63-1.21-3.67-2.2-1.71-.39.78.21,2.81.29,3.65,0,.5.54,2.64.12,3s-1.16-2.07-2-1.75c-1.7.67.6,2.12-.32,3-.54.51-.49-1.89-.54-2s-.37-.26-.45-.48a6.26,6.26,0,0,1-.12-1.08c0-.15,0-.68-.09-.75s-1.1.5-1.24.75c-.39.66,0,1.35,0,1.94a9.35,9.35,0,0,1-.5,2.82c-.26.68-.37.53-.67,1.17a3.56,3.56,0,0,0,.11,2.93,12.2,12.2,0,0,1,.32,2.72c-.52.69.39,2.65-.38,2.91s-.77-1.58-1.08-2.13c-.75-1.32-1.87-.77-2.06-2.59-.1-1-.35-3.42-1.53-2.47-1.54,1.24.27,3.53-.56,5.2-.17.35-.49.4-.56.72s.38.94.14,1.44a2.85,2.85,0,0,1-1.42,1c-.56,0-.18.16-.46-.26-.57-.82-.55-2.84-.67-4a11.05,11.05,0,0,0-.52-3.45c-.35-.68-1-1.08-1.44,0a3,3,0,0,0,0,1.71,22,22,0,0,1,.24,7.08,11.37,11.37,0,0,0-.81-2.28,1.31,1.31,0,0,0-.22-.25c0-1.07-.6-4.8-1.33-4.54-.38.13-.63,1.6-.77,3a.32.32,0,0,0,0,.14,20.74,20.74,0,0,0-.11,2.25,16.38,16.38,0,0,0-.35-3.51,18.3,18.3,0,0,1-.79-3c-.16-1.15.36-5.29-.82-5.52a4.38,4.38,0,0,0-.89.48c-.42.54-.06,0-.16.66s.13.78-.32,1.35c-.33.4-.53.18-.68.82a8,8,0,0,0,.23,2.09c.09,1,.1,2,.13,3,0,.6-.07,3.62.15,3.73-.21-.11-.42-.91-.53-1.08a13.26,13.26,0,0,1-1.16-1.78c-.8-1.94-1.24-4.11-1.88-6.13-.44-1.4-.52-3.07-1.12-4.22-.23-.44-.85-2.18-1.66-.58-.3.6.44,2.71.53,3.3.2,1.26.39,2.54.55,3.82s.32,2.53.5,3.79c.12.86.26,1.72.42,2.56.07.35.66,2,.41,2.4,0,0-1.43-2.41-1.59-2.81-.51-1.29-1.2-2.44-1.66-3.77-.31-.92-.48-3.36-1.19-3.67-1.12-.49-.79,1.7-.7,2.3.19,1.23-.78,1.76-.81,3a16.62,16.62,0,0,0,.46,2.75,66.5,66.5,0,0,0,1.51,6.59c.06.23.12.45.19.67a9.85,9.85,0,0,1-.8,2.48c-.05.07-.14.19-.25.32a.58.58,0,0,0-.4.22,1,1,0,0,0-.22.48,1.34,1.34,0,0,1-.42.34c.11,0-.14-4-.15-4.39,0-.83.5-3.21.23-3.8s-1.08,0-1.42.55a3.1,3.1,0,0,0-.26,1.33c-.13,1.49-.26,3-.4,4.48a19.93,19.93,0,0,0,0-4c-.09-.77-.25-3.19-.89-3.44a4.67,4.67,0,0,0-1.49.65c-.36.59.39,2.42.24,3.23-.06.3-.3.62-.31.92,0,.1.19.14.19.19,0,.26.06.52.1.77.09.66.15,1.34.23,2a11.77,11.77,0,0,0-1.59-3.37c-.52-.66-2.17-1.53-2.3.25s1.18,3.31,1.92,4.55a8.15,8.15,0,0,0,1.27,1.81c.31.3,1.35,1.39.11,1.63.05.37.59,1.9.58,2.32l-.07-.08a8.18,8.18,0,0,1-1.38-2.41c-.15-.44-.28-1.66-.6-1.94-.52-.45-1.09.4-1.4-.65-.15-.5-.3-5-1.64-3.85-.66.55-.48,1.78-.44,2.28s0,.67.07,1c0,.07,0,1,0,1-.08.28-.52.6-.68.83-.29.39-.44.9-.71,1.27s-1,1-1.42,1.6-.84,1.73-1.4,2.44c-.28.36-1.44,1.45-1.79,1.38,0,0-.23-1.26-.25-1.35a12.06,12.06,0,0,1-.32-2.27c0-1.13.62-1.81,1.31-2.77,1-1.41.68-1.67-.38-2.13-.58-.25-.82-.18-1.54.28.13-1.11.23-2.2.34-3.31a5.55,5.55,0,0,0,0-2.4,2.32,2.32,0,0,0-.59-.92,1.57,1.57,0,0,0-.3-.38,1,1,0,0,0-.48.26c-.61-.15-.39.24-.67-.25-.16-.29-.08-.84-.19-1.18-.23-.7-.53-1-1.32-.62-1.88,1-.09,3.39-.38,4.82.07-.37-.81-1.45-.92-1.82-.17-.57-.16-1.26-.33-1.83-.3-1-1.65-1.49-2.63-.24-.18.22-.21.58-.39.81s-.43.37-.6.6a2.74,2.74,0,0,0-.62,1.48c0,.49.73,3.56.29,3.9-.14.11-.25-.35-.41.2a1.85,1.85,0,0,0,0,1.25,4,4,0,0,0,.79,1.37c.36.49,1.83,1.79.12,1.76-1.06,0-.37-1.17-1-1.48-.44-.22-1.09.93-1.6.85s-.32-1.1-.42-1.52c-.2-.92-.49-1.8-.71-2.7-.07-.29,0-.61-.22-.84s-.37,0-.52-.19c-.5-.46-.52-1-.73-1.7s-.41-1.72-1.52-.71a2.5,2.5,0,0,0-.77,1.91,9.2,9.2,0,0,0,.29,3.15,3.47,3.47,0,0,1,.32,2c-.1.38-.4.57-.41,1.07,0,.3.45.72.25,1.11,0,0-.24.41-.3.34a23.85,23.85,0,0,0-1.47-2.36,1.32,1.32,0,0,0-2,.45,2.48,2.48,0,0,0,0,2,4.13,4.13,0,0,1,.22,2.24c-.42,1-1.29.56-1.83.36a2.42,2.42,0,0,0-.94-.24c-.8,0-.54.23-1.11.65-.31.23-.12.56-.53.26s.06-.62,0-1c-.12-.52-.44-.76-1-.19-.16-.68-.29-4-1.33-3.37-.58.34-.1.67-.27,1.06s-.5.47-.8.94c-.46.72.3,2.35-.4,2.87-1.27.94-1.65-4.16-1.76-4.82a10.79,10.79,0,0,0-1.14-3.41c-.25-.47-.28-.71-.87-.53a4.19,4.19,0,0,0-1,.63c-.42.51-.18.5-.14,1,0,.68,1.12,6.88.7,7.18s-1.23-2.83-2-2.65c-1.16.25-.8,1.7-.68,2.33a8.92,8.92,0,0,0,1,2.63,1.6,1.6,0,0,0-.58.2c-.31.17-.45.53-.72.75a1.11,1.11,0,0,0-.44-.16,1.12,1.12,0,0,0-1.21.72s0,.1,0,.15l-.19.06c-1,.27-2.07.18-3,.47s-.76.86-1.45,1.15a1,1,0,0,1-1.11,0c-1.22-1.17,2.29-3.86,2.3-5.15,0-.88-1.23-1-2.19-.51s-1.08,1.59-1.84,2.21c-1.16-1.9,3.34-4.23,1.21-5.87a3.43,3.43,0,0,0-3.06,0c-.72.59-.65,2.33-.92,3-.64-.65,0-1.17-.24-1.86s-.25-.46-1.13-.5c-2.57-.1-1.79.8-2.86,2.22-.35.46-2.32,2.18-2.68,1.89s.46-.86.5-1a5.45,5.45,0,0,0-.21-2.27,7.52,7.52,0,0,0-1.75.36c-.47.32-.16,1.64-.76,1.86-.9.32-.78-.47-1-.65a2.87,2.87,0,0,0-1.36-.56c.11.16,0,.38.14.54-.31,0-.65.12-1,.11.35.57-.36.83-.49,1.38s.34,1,.33,1.44c0,.64-.67,1.26-1,1.91a21.2,21.2,0,0,0-.84,2.06c0-.31-.69-.88-.66-1s2.42-1.42.68-1.56c-1.21-.1-1.23,1.65-1.83,2.12.3-.26-1.48-2-1.59-2.47l0,.11a15.15,15.15,0,0,1-.48-1.54c0-.14,0-.73.06-.66a14.34,14.34,0,0,1-.17-2.16c-1.45.55-.66-.9-.41-1.31A8.43,8.43,0,0,0,1227,111c.4-1.4,1.33-3.39.59-4.68s-2.28.4-2.63,1.22a10.5,10.5,0,0,0-.62,3.55c-.14-.56-.3-1.12-.42-1.68a4.74,4.74,0,0,0-.16-.65s.2-.18.15-.26c-.11-.23-.48-.32-.65-.51-.44-.52-.23-2.39-.82-2.62a7,7,0,0,0-1.87.43c-.62.58,0,2.51.18,3.15a11.13,11.13,0,0,0,1.36,3l-1.94-3.16c-.22-.36-.33-.68-.74-.86-.56-.24-1.62-.24-1.74.45s1.26,2.09,1.52,2.73a33.36,33.36,0,0,0,1.3,3.41,5.9,5.9,0,0,1-1.88-.27c-1-.32-1.1-1.2-2-1.61-1.65-.72-2,.16-2.09,1.19a1.44,1.44,0,0,1-.74,1.3,3.71,3.71,0,0,1-1.71.83,2.59,2.59,0,0,1-2.11-.28,3.78,3.78,0,0,0-2.7,0,6.63,6.63,0,0,1,.74,3.27c-.1.37.47.5-.52.58-.73.06-.28-.19-.32-.22a5.58,5.58,0,0,1-1.73-2.65c-.1-.38-.18-.77-.29-1.16-.17-.64,0-.54-1.07-.68a6.32,6.32,0,0,1-2.24-.57c-.74-.41-.63-.55-.58-1.19s.25-.78-.72-.65c-.39.06-.86.14-1,.51s.31.78.27,1.1-.4.7-.52,1.06a8,8,0,0,0-.16,2.12c-1.29-1.48-1.65-3.51-2-5.28-.1-.48,0-1-.51-1.26-.88-.53-1.42.12-1.58.82-.22.89.3,1.93.53,2.8s.9,2.32.54,3.23c-.18.47.21.15-.43.45a3.69,3.69,0,0,1-1.89.07c-.43-.23-.06-.85-.31-1.12s-.56,0-.85-.19c-1.46-.73-.19-3.41-2.29-3.42-1.61,0-1.1,1.9-.9,2.64.37,1.4-1,1.64-1.45,3-.17.57.24,1.92-.53,2.12-.93.23-.55-1.66-1.33-1.86a6.23,6.23,0,0,1-.52-2.11c0-.8.17-1.63-.8-2.15-.54-.29-.62-.11-1.12-.45a4.65,4.65,0,0,1-1.44-1.72c-.16-.44,0-1.14-.6-1.39a2.76,2.76,0,0,0-1.61.18c-.08.1.13.46.15.58s.24.56.2.83-.33.39-.35.6.81,1.79,0,1.73c-1.29-.1.79-2.41-1.29-1.93-1,.23-1.22,2.36-1.63,2.33-.58,0-.7-1.81-.81-2.19-.17-.63-.15-2.4-.83-2.73-1.7-.82-1.92,1.91-1.88,2.44.11,1.37.42,2.71.47,4.1a9.06,9.06,0,0,1-.23,3.23c-.6,1.72-1-.09-1.17-.83s-.07-2.54-1.31-2.88c-1.55-.43-1.41,1.87-1.28,2.59.41,2.33,1.85,4.09,1.14,6.64-.18.64-.4,2.3-1.36,2a1.34,1.34,0,0,1-.67-1.27c.16-.83.76-1.24.63-2.17,0-.28-.12-1.07-.45-1.27-.64-.41-1.7.07-2.28-.38a10.07,10.07,0,0,1-.46-1A12,12,0,0,1,1166,120c-.14-.54-.29-1.1-.42-1.64-.18-.72-.1-1.5-.32-2.22-.09-.32-.41-1.45-.75-1.59-1-.4-1.46.88-1.46,1.37,0,1.41.41,2.91.54,4.34.08.84.26,1-.91,1a6.8,6.8,0,0,0-1.65.24c-.1-.36,1-1.63,1.12-2a9.15,9.15,0,0,0,.31-1.92c.06-.83-.34-3-2.09-1.65-1.1.82-.62,2.49-1.67,3.29s-1.09-.54-1.08-1.11a12.32,12.32,0,0,0-.48-3.41c-.19-.78-.07-2.91-1-3.3-2.38-1-1.32,5.65-1.86,6-.1.06-1.9-1.93-3-1.28s.14,1,.37,1.33c.46.75-.08.1-.46.55-.68.81-.46,1.19.4,1.53.47.19.76.23,1,.55s.48,1.74.06,1.92c.32-.13-1.5-.94-1.64-1-.78-.28-.94-.67-1.29-1.39-.23-.45-1.26-3-2.14-2.28s-.44,1.33-.54,2.15c0,.36-.46,1.39-1.19,1.42s-1-1-1.12-1.33c-.51-1.07-.45-2.29-.9-3.35-.22-.5-1.31-1.93-2.33-1.23-.48.32-.19,1.48-.1,1.85.27,1.23.6,2.45.89,3.67.09.36.53,1.1.36,1.45-.67,1.33-2.07-.51-2.58-.71-1-.4-2.18.19-1.62,1,.45.68,2.7,1.2,1.7,2.08-.29.26-.82.12-1.11.52s.07.92,0,1.28c-.39,1.15-1,.17-1.58-.27s-1.11-.39-1.38-1.13a11,11,0,0,0-.86-2.31c-.47-.71-1.19-1.5-2-.45s.09,1.76.47,2.65a5.85,5.85,0,0,1,.69,2.92c-.23.88-.84,0-1.26-.42-.57-.64-1.19-2-2.74-1.47-2,.71.07,1.61-.31,2.3-.21.39-1,.43-1.18.85s.47.75.5,1.08.46.25-.16.54-.88-.32-1.14-.66c-.6-.78-1.15-1.9-2.28-2.3-1.49-.54-1.61,1-1.17,1.76.58,1,3.25,4.23-.36,4.28-.82,0-.52.14-.89-.42a5,5,0,0,1-.43-1.58,9,9,0,0,1-.18-3.1c.06-.37.31-.52.18-.84a4.28,4.28,0,0,0-1.58-1.11c-1.3-.41-1.53.94-1.82,1.7-.22.58-.25,1.41-1,1-.47-.23-.3-2.59-.44-3.15-.2-.78-.32-2.12-1.58-2.31-1-.16-1,.24-1.72-.21-.59-.36-.81-.92-1.23-1.36s-.17-.65-1-.41c-.56.15-.44.06-.58.59-.19.69.43,1.94.58,2.6.38,1.69.94,4,.25,5.73-.19.48-1-.53-1-.56a4.89,4.89,0,0,0-.57-1.25c-.3-.36-.64-.71-.93-1.08-.41-.53-.49-1.35-1-1.81-1.13-1.11-2,.44-1.82,1.33s1,1.87,1.27,2.85c.21.76.4,2-.88,1.43-.82-.38-.74-.84-1.87-.67a2.78,2.78,0,0,0-2,1.23c-.47,1,.6,2.29,1.2,3.12a13.32,13.32,0,0,1,1.54,2.94c.16.39,1.67,3,.45,3.17,0,0-2.28-2.18-2.32-2.22a8.1,8.1,0,0,1-1.55-2.65c-.39-.82-.84-3.45-2.44-3.35-1.34.09-1.25,1.79-1.23,2.39,0,1.25,1.17,2.3,1.74,3.43s0,1.89,1.1,2.67c.59.42,2.28,1.26,2.65,2.06-.53.08-1.06.14-1.61.2a7.18,7.18,0,0,1-1-.95c-.64-.76-2.32-2.61-2.92-.4a2.55,2.55,0,0,0,.11,1.54h-.24a3,3,0,0,0-.2-.86,2.31,2.31,0,0,0-1.66-.64c-.25,0-.71.24-.91.21-.4-.07-.44-.36-.79-.47-1.18-.36-1.38.49-1.5,1.23a28.19,28.19,0,0,1-2.75-.67c-.25-.65.45-1.43.12-2.11-.58-1.23-1.84-1-2.8-.06-.29.27-.6.56-.89.86-.47-.2-.94-.37-1.41-.61-.36.25-.73.44-1.09.67a1.53,1.53,0,0,1-.4-.41c-.18-.54.74-1.72,1-2.34.48-1.15,1-2.18-.45-2.86-.56-.27-2.77-1.12-3.26-.49.44-.58-.51-1.57-1.29-1.6-1.11,0-1.26,1.06-2.21,1s-.59-1.16-.78-1.64c-.24-.63-.35-.55-1.52-.62-2.29-.12-2.38,1.25-2,2.61.14.56,0,1.82-.76,1-.55-.65.23-1.58-1.48-.94a8.92,8.92,0,0,0-3.58,2.76c-.4.56-1,1.92-2.06.9-.58-.55,0-1.32.42-1.87a10.75,10.75,0,0,0,2.25-3.19c.16-.49.39-1.62-.15-1.94a1.38,1.38,0,0,0-1.6.3c-.65.57-.83,1.53-1.32,2.18a6.18,6.18,0,0,1-1.4,1.34,14,14,0,0,0,.45-6c-.14-.65-.38-2.23-1.71-1.53-.91.47-.63,3.86-1,3.9-.57.07-2.07-6.19-2.3-6.84-.17-.45.09-.63-.57-.75a5,5,0,0,0-1.36.28c-.7.32-.63.55-.69,1.16a11.05,11.05,0,0,0,.23,3.85c.12.48,1.09,3.13.9,4.56l-.31-.21a1.44,1.44,0,0,0-1.46-.21.77.77,0,0,0-.07-.16c.18-.86.33-1.71.49-2.56a4.15,4.15,0,0,0,.15-2.06,3,3,0,0,0-.55-1,1.92,1.92,0,0,0-.28-.42.81.81,0,0,0-.5.08c-.61-.33-.41.08-.66-.43-.15-.3,0-.74-.13-1.07-.19-.68-.48-1.08-1.3-1-2,.27-.28,2.92-.65,4.06.1-.3-.73-1.51-.82-1.87-.14-.55-.1-1.15-.24-1.7A1.77,1.77,0,0,0,1050,125c-.19.13-.25.44-.44.58s-.45.18-.64.33a1.59,1.59,0,0,0-.7,1.1c-.08.42.54,3.38.08,3.54-.15.05-.23-.39-.43,0a1.46,1.46,0,0,0-.08,1.1,4.76,4.76,0,0,0,.73,1.46c.34.54,1.75,2.13,0,1.59-1.08-.33-.32-1.15-.92-1.61-.43-.33-1.15.49-1.66.26s-.27-1.09-.34-1.49c-.16-.89-.41-1.76-.58-2.64-.06-.28,0-.55-.18-.82s-.37-.17-.52-.35a3.56,3.56,0,0,1-.65-1.77c-.18-.73-.32-1.68-1.5-1.17-.7.31-.79.84-.89,1.46a7.85,7.85,0,0,0,.12,2.94c.14.59.48,1.28.23,1.89-.13.3-.44.38-.48.82,0,.28.42.81.19,1.1,0,0-.26.28-.31.2-.52-.82-.77-1.82-1.37-2.62a1.45,1.45,0,0,0-2.12-.3c-.45.47-.2,1.35-.09,1.82s.41,1.65.11,2.12c-.49.76-1.35.08-1.89-.29a3.75,3.75,0,0,0-.94-.53c-.82-.28-.57,0-1.17.22-.32.11-.15.47-.55.06s.09-.55,0-.9c-.09-.52-.4-.86-1-.54-.12-.69-.09-3.83-1.19-3.64-.61.1-.13.59-.33.89s-.54.26-.86.6c-.51.51.19,2.32-.56,2.56-1.35.44-1.48-4.55-1.56-5.22a13.26,13.26,0,0,0-1-3.71c-.23-.55-.25-.79-.87-.86a2.92,2.92,0,0,0-1.1.17c-.46.32-.21.41-.2.89,0,.69.83,7.07.38,7.19-.3.08-1.13-3.2-2-3.35-1.21-.22-.9,1.34-.8,2a16.61,16.61,0,0,0,2.16,5.48,4.84,4.84,0,0,1-1.46-.81c-.56-.46-1-1.3-1.65-1.63a.94.94,0,0,0-1.29.24c-.31.47.22,1.46.49,1.87a9.5,9.5,0,0,0,2.66,2.29c.51.36,1.15.92.88,1.62-.51,1.32-1.34.22-1.82-.18a6.72,6.72,0,0,0-3.52-1.45c-1.47-.05-.6.57-.82,1.37-.27,1-.8-.12-.87-.7-.17-1.39-.66-2.65-2.33-1.8-.86.44-1,.41-1,1.08s.63,1.46-.08,1.8-1.14-.64-2-.25c-.58.28-1,1.53-.48,1.92-.56-.43-2,1.09-2.29,1.52-.84,1.1-.17,1.91.55,2.84.38.51,1.43,1.31,1.47,1.89a6.22,6.22,0,0,1-.49,1.21c-.5.07-1,.09-1.47.13-.33-.22-.7-.42-1-.6-.92-.52-1.82-.37-2,.69a30,30,0,0,1-7.45-1.2,3.3,3.3,0,0,0-.12-.93c-.16-.57-.62-2.2-1.65-1.85-.64.22-.81,1-.85,1.9-.51-.2-1-.4-1.45-.6a1.65,1.65,0,0,0-2.21-1.76,1,1,0,0,0-.61.32,8,8,0,0,1-1.16-.77,8.59,8.59,0,0,1-.18,1.87,3.11,3.11,0,0,1-.34-1.25c-.1-1,.23-2.16.08-3.09s-1.26-2.09-1.77-.67c-.2.58,0,1.38-.16,2-.1.44-.25.88-.36,1.32a5.83,5.83,0,0,0,0,1.37s-.3,1.24-.59.85c-1.06-1.44-1.34-3.76-1.57-5.48a9,9,0,0,0-.37-2.65c-.26-.45-.14-.4-.61-.36-.72.05-.49.24-.64.72a6.91,6.91,0,0,1-.51,1.68c-.41.66-.5.27-1.22.75-.88.59-.56,1.89-.47,2.69.07.57.91,2.75.64,3.11-.46.6-.74-.17-1.08-.65s-1-1.83-1.88-1a4.16,4.16,0,0,0-.84,1.55c0,.35.23.41.39.73a8.16,8.16,0,0,1,.52,1.49l-1.67-.05a.43.43,0,0,1,0,0c.1-.85-.46-2.28-1.42-1.29a2.93,2.93,0,0,0-.67,1.34c-.81,0-1.63.06-2.47.13,0-.66.57-1.67-.82-1.7-1.22,0-1.36,1.2-1.55,2-.37.06-.75.11-1.13.2a12.75,12.75,0,0,1-.12-2.12c0-1,.4-1.95-.45-2.65s-1.21.24-1.34,1.06a13.38,13.38,0,0,0,.06,2.46c0,.78-.38.93-.68,1.5-.08.16-.15.34-.22.52-.27.09-.55.22-.82.32l-.06-.07c-.2-.3-.13-.94-.43-1.19s-.7,0-1-.13c-1-.51.5-1.72.63-2.51.16-1-.87-1.17-1.52-.46-.32.36-.81,2.54-1.72,1.5-.24-.27-.13-1.11-.18-1.48-.15-1.25-.28-2.5-.45-3.74-.05-.39-.19-1.57-.65-1.72-1-.33-1.35,1.37-1.36,1.92,0,1.15.41,2.27.35,3.44,0,.38,0,1.45-.43,1.62s-1.18-.63-1.32-.95c-.33-.74-.08-1.45-1.07-1.86s-.86,2.34-.89,2.84c-.05.79,0,1.22-.54,1.73-.09.1-1.21,1.44-.92,1.46-.38,0-.62-1.52-.55-1.82s.29-.52.59-.85c.53-.6.58-1-.18-1.57-.42-.3-.62.48-.51-.37.06-.43.79-1.15-.13-1.38s-1.74,2.2-1.84,2.18c-.5-.14-1.74-6.72-3.22-5.05-.61.68.14,2.65.23,3.45a15.28,15.28,0,0,0,.69,3.37c.19.53.65,1.85-.47,1.4s-1.18-2.15-2.26-2.57c-1.71-.68-1.35,1.47-1,2.24a9.85,9.85,0,0,0,.82,1.7c.23.36,1.6,1.29,1.49,1.62.09-.28-1.35.25-1.34.24-.87.38-.77.21-1-.61-.34-1.39-.5-2.94-.93-4.27-.15-.46-.91-1.51-1.51-.82-.21.24-.11,1.42-.08,1.74.06.76.36,1.47.45,2.2.07.56.12,1.13.18,1.69a13.68,13.68,0,0,1,.15,1.92,10.46,10.46,0,0,1,0,1.13c-.29.62-1.23.51-1.59,1.1-.18.3,0,1.07.06,1.35.18.92.76,1.11,1.13,1.84a1.16,1.16,0,0,1,.1.38l-1.34.46c-.19-.3-.36-.63-.48-.83-1.32-2.18-.79-4.31-1.19-6.63-.12-.73-.72-2.94-1.75-2-.83.72-.19,2.34-.1,3.14s.36,2.59-.62,1.16a11,11,0,0,1-1.16-3c-.39-1.34-.56-2.69-.91-4-.13-.5-1.13-3-2.15-1.68-.41.53.15,2.19.22,2.84,0,.39.48,2.11.06,2.33S933,151,932.16,151.1c-1.7.22.56,1.73-.37,2.24-.55.3-.45-1.54-.5-1.65s-.36-.27-.44-.45a4,4,0,0,1-.1-.85c0-.12,0-.52-.08-.59s-1.1.19-1.25.35c-.4.44,0,1,0,1.5a5,5,0,0,1-.56,2.09c-.26.48-.37.34-.69.79-.57.8-.21,1.54.06,2.28a8.24,8.24,0,0,1,.26,2.16c-.53.44.34,2.1-.43,2.18s-.74-1.35-1-1.82c-.72-1.15-1.85-.92-2-2.36-.08-.76-.28-2.72-1.48-2.2-1.56.69.2,2.81-.66,4-.18.24-.5.23-.57.46s.36.8.11,1.15a2.54,2.54,0,0,1-1.44.55c-.57-.08-.18.1-.46-.28-.55-.75-.49-2.33-.59-3.23a7.56,7.56,0,0,0-.46-2.82c-.33-.6-.94-1-1.43-.25-.26.41-.07.86,0,1.35a13.87,13.87,0,0,1,.1,5.63,9.53,9.53,0,0,0-.76-1.94,1.73,1.73,0,0,0-.23-.24c0-.85-.5-3.91-1.23-3.85-.39,0-.67,1.15-.83,2.23a.14.14,0,0,0,0,.11,11.49,11.49,0,0,0-.15,1.76,11.82,11.82,0,0,0-.29-2.86,14.86,14.86,0,0,1-.74-2.57c-.13-.95.48-4.13-.71-4.56a4,4,0,0,0-.9.18c-.43.35-.07,0-.17.5s.11.65-.36,1-.53,0-.69.52.16,1.28.19,1.72c.07.81.06,1.61.07,2.42,0,.48-.14,2.88.08,3-.21-.12-.4-.8-.51-1a13.52,13.52,0,0,1-1.13-1.66c-.78-1.72-1.17-3.57-1.78-5.34a23.76,23.76,0,0,0-1.05-3.67c-.22-.4-.82-2-1.66-.85-.32.41.39,2.3.47,2.8.18,1.07.34,2.14.48,3.22s.27,2.12.43,3.18c.11.72.23,1.45.38,2.16.07.3.63,1.71.37,2,0,0-1.4-2.25-1.55-2.61-.49-1.15-1.17-2.24-1.6-3.42-.3-.82-.43-2.85-1.14-3.27-1.12-.65-.83,1.21-.75,1.73.17,1-.82,1.26-.87,2.29a11.93,11.93,0,0,0,.41,2.35,50.58,50.58,0,0,0,1.4,5.71c.06.2.12.39.17.59-.33.62-.29,1.33-.85,1.86a2.12,2.12,0,0,1-.25.22.55.55,0,0,0-.41.1.59.59,0,0,0-.23.35,1.2,1.2,0,0,1-.43.2c.11,0-.07-3.34-.07-3.64,0-.68.56-2.53.3-3.07s-1.09-.26-1.44.15a1.87,1.87,0,0,0-.29,1l-.48,3.61a13.62,13.62,0,0,0,.08-3.31c-.08-.65-.19-2.68-.83-3a4.75,4.75,0,0,0-1.52.2c-.37.41.35,2.1.18,2.74-.06.24-.31.44-.33.69,0,.09.19.16.19.2,0,.22.05.44.08.66.09.57.14,1.15.21,1.72a11.87,11.87,0,0,0-1.56-3.15c-.51-.66-2.17-1.76-2.33-.3s1.14,3,1.87,4.22a9.15,9.15,0,0,0,1.24,1.78c.31.31,1.35,1.42.09,1.37,0,.32.56,1.69.54,2l-.07-.08a8.37,8.37,0,0,1-1.35-2.28c-.15-.39-.25-1.44-.57-1.73-.52-.49-1.11.1-1.41-.84-.14-.45-.22-4.24-1.59-3.6-.68.32-.52,1.39-.49,1.82s0,.58,0,.87c0,.06,0,.8,0,.83-.09.22-.54.4-.71.55s-.45.67-.74.92-1,.6-1.47,1.05-.89,1.29-1.46,1.78c-.29.25-1.49.93-1.84.79,0,0-.22-1.13-.24-1.21a10.69,10.69,0,0,1-.29-2c0-1,.67-1.41,1.39-2.07,1.06-1,.72-1.27-.36-1.92a1.51,1.51,0,0,0-1.57-.12c.15-.92.27-1.84.4-2.76a4.16,4.16,0,0,0,0-2.07,2.77,2.77,0,0,0-.59-.93,2,2,0,0,0-.3-.41.94.94,0,0,0-.49.1c-.63-.29-.41.11-.68-.39-.17-.3-.07-.74-.18-1.07-.22-.66-.53-1.06-1.35-.9-1.93.36-.14,2.93-.46,4.09.08-.3-.8-1.48-.9-1.83-.17-.55-.16-1.15-.32-1.69a1.77,1.77,0,0,0-2.7-1c-.18.14-.22.45-.4.6s-.45.2-.63.36a1.6,1.6,0,0,0-.65,1.13c-.06.42.69,3.35.24,3.53-.15.06-.25-.38-.43.06a1.47,1.47,0,0,0,0,1.11,4.64,4.64,0,0,0,.8,1.42c.36.53,1.84,2,.1,1.59-1.09-.29-.37-1.13-1-1.57-.45-.31-1.13.54-1.65.33s-.32-1.07-.41-1.47c-.2-.88-.48-1.74-.7-2.61-.07-.27,0-.55-.21-.81s-.39-.15-.54-.32a3.79,3.79,0,0,1-.73-1.75c-.21-.72-.4-1.66-1.55-1.09-.69.33-.75.86-.82,1.49a7.85,7.85,0,0,0,.25,2.94c.16.58.54,1.25.31,1.87-.11.31-.42.4-.43.85,0,.27.45.78.24,1.08,0,0-.26.3-.31.22-.56-.8-.85-1.78-1.49-2.56a1.44,1.44,0,0,0-2.13-.2c-.42.48-.14,1.35,0,1.82s.48,1.63.2,2.11c-.45.78-1.34.14-1.9-.2a3.62,3.62,0,0,0-1-.49c-.84-.24-.57.05-1.16.27-.32.12-.13.48-.55.09s.06-.56,0-.9c-.12-.52-.45-.84-1.07-.49-.16-.69-.27-3.83-1.36-3.59-.6.13-.1.6-.28.91s-.53.28-.84.63c-.48.54.29,2.32-.44,2.59-1.33.5-1.69-4.48-1.8-5.15a13.6,13.6,0,0,0-1.17-3.66c-.26-.53-.29-.78-.91-.82a3.31,3.31,0,0,0-1.09.22c-.44.34-.19.42-.16.9.05.69,1.14,7,.7,7.17-.29.09-1.27-3.15-2.1-3.26-1.22-.17-.84,1.37-.72,2a16.6,16.6,0,0,0,2.41,5.38,4.75,4.75,0,0,1-1.49-.75c-.59-.43-1.05-1.25-1.72-1.55a.94.94,0,0,0-1.28.3c-.29.49.28,1.45.57,1.85a9.62,9.62,0,0,0,2.76,2.16c.52.34,1.19.87,1,1.58-.44,1.34-1.32.28-1.82-.1a6.69,6.69,0,0,0-3.58-1.28c-1.48,0-.58.6-.76,1.4-.23,1-.81-.08-.91-.66-.23-1.38-.77-2.62-2.41-1.69-.83.48-.93.45-.89,1.12,0,.52.69,1.43,0,1.8s-1.17-.59-2-.16c-.57.3-.92,1.57-.39,1.94-.58-.4-1.9,1.17-2.22,1.62-.8,1.14-.08,1.92.67,2.82.41.48,1.49,1.24,1.56,1.82a19,19,0,0,1-.87,2.23c-.32.05-.37-.34-.6-.54a7.09,7.09,0,0,0-1.48-.82c-1-.52-2.05-.3-2,1.05,0,.79.9,1.27.85,2a8.24,8.24,0,0,1-1.47,2.08c-.38-.5-.85-2.24-1.86-1.21-.23.23-.15.52-.42.72s-.55,0-.74.13a1.9,1.9,0,0,0-1,1.19c-.07.52,1.36,4.56.35,5.27a.34.34,0,0,1,0-.1c.18-.67.6-2.31-.56-2.58,0-.14.07-.27.1-.41a3.7,3.7,0,0,0-.38-2.69c-1.21-1.84-1.79.47-2,1.41-.13.58-.84,2.78-1.49,2.16s.69-2.64,1-3.38c.53-1.12-.15-1.73-.13-2.87s.48-2.63.07-3.81c-.19-.56-.72-2.18-1.73-1.78-1.21.48-.62,3.08-.62,4a9.24,9.24,0,0,1-.21,3s-.26.81-.49,1.56a.93.93,0,0,0-.8.13.77.77,0,0,0-.31.34,36.79,36.79,0,0,1,0-5.52c.15-1,.5-2.52-.2-3.32a2,2,0,0,0-1.9-.44c-.88.25-.67.65-1.13,1.29-.73,1-1-.24-1.14-1-.15-1,.13-2.17-.07-3.1s-1.35-2-1.79-.58c-.18.58.05,1.38-.07,2-.08.44-.21.89-.3,1.33a5.55,5.55,0,0,0,0,1.36s-.25,1.26-.55.89c-1.13-1.39-1.51-3.7-1.82-5.41a9,9,0,0,0-.48-2.62c-.29-.45-.17-.4-.64-.34-.71.09-.48.26-.61.75a6.53,6.53,0,0,1-.43,1.7c-.38.67-.49.29-1.18.81-.85.62-.47,1.9-.35,2.7.09.57,1,2.7.78,3.08-.43.62-.74-.14-1.11-.6s-1.11-1.78-1.92-.93a4,4,0,0,0-.77,1.59c0,.35.25.4.42.72a10.88,10.88,0,0,1,1,2.94,6.48,6.48,0,0,1,.24,1.62c-.08.65.1.43-.51.71-2.66,1.24-1.84-2.75-1.76-3.84.07-.85-.56-2.25-1.47-1.22-.68.77-.69,2-.86,2.94-.08.42,0,1.08-.61,1s-.22-.19-.3-.45.22-.91,0-1.18-.86-.08-1.15-.36c-.52-.52.67-2.08-1-2-1.34,0-1.3,1.54-1.5,2.34-.12.52-.26,1.36-.64,1,.18-.68.77-2.51.16-3.08a5.26,5.26,0,0,0-.8-.24c0-.9.24-1.81-.58-2.42s-1.19.29-1.29,1.12a13.15,13.15,0,0,0,.18,2.45c.05.78-.35,1-.62,1.53a.42.42,0,0,0,0,.1.6.6,0,0,0-.19.16s0,.1.07.16c-.16.47-.3.92-.64.67a7.08,7.08,0,0,0-.47-1.79,4,4,0,0,0-1.15-1.39,2.69,2.69,0,0,0,.4-.88c.11-1-.93-1.13-1.55-.39-.3.37-.69,2.57-1.64,1.58-.25-.26-.19-1.11-.25-1.47-.21-1.24-.39-2.49-.62-3.73-.07-.38-.26-1.55-.72-1.68-1-.29-1.3,1.43-1.28,2,0,1.15.51,2.26.51,3.43,0,.38.08,1.45-.35,1.64s-1.22-.58-1.37-.89c-.36-.73-.15-1.45-1.15-1.81s-.76,2.38-.77,2.88c0,.79,0,1.21-.46,1.75-.08.1-1.14,1.49-.85,1.5-.38,0-.69-1.5-.63-1.8s.26-.53.55-.87c.51-.62.53-1.05-.25-1.56-.43-.28-.6.51-.53-.35,0-.43.74-1.18-.19-1.37s-1.64,2.28-1.74,2.26c-.51-.12-2-6.64-3.44-4.9-.58.71.25,2.65.38,3.44a15.63,15.63,0,0,0,.84,3.33c.21.53.74,1.82-.4,1.42-.06,0-.09-.08-.14-.1s0-.24,0-.34c0-.46.43-1,0-1.5-.14-.17-1-.55-1.24-.41s-.07.47-.1.59a.49.49,0,0,0,0,.12,2,2,0,0,0-.92-.83c-1.35-.46-1.38.71-1.17,1.61a3.58,3.58,0,0,0-.47.48,11.14,11.14,0,0,0-.31-1.07,1.88,1.88,0,0,0-.36-.57c.15-.72.66-2.14.3-2.66-1-1.36-2.07,1.09-2.22,1.59-.41,1.32-.64,2.67-1.09,4a16.18,16.18,0,0,1-.9,2.18c-.21-.47-.5-.88-.84-1,.23-.84.58-2-.07-2.62-1-.95-1.69,1.23-1.85,1.95a20.64,20.64,0,0,0-.34,2.75c-.05-.16-.11-.32-.16-.46-.45-1.31-.69-2.66-1.09-4a4.93,4.93,0,0,0-1.06-1.74,7.13,7.13,0,0,0,.31-1.29c0-.32.21-1.49,0-1.75-.56-.71-1.37.3-1.54.76-.49,1.31-.72,2.85-1.12,4.22-.24.81-.15,1-1,.57,0,0-1.4-.59-1.32-.3-.09-.33,1.32-1.21,1.56-1.56a10.22,10.22,0,0,0,.9-1.66c.33-.75.79-2.88-.95-2.28-1.1.37-1.33,2.09-2.38,2.46s-.61-.89-.4-1.42a15.06,15.06,0,0,0,.84-3.33c.13-.79,1-2.73.39-3.44-1.41-1.73-2.94,4.78-3.45,4.9-.1,0-.72-2.47-1.74-2.26s-.23.94-.19,1.37c.07.86-.09.07-.53.35-.78.51-.75.94-.24,1.56.28.35.47.49.55.87s-.26,1.79-.63,1.8c.28,0-.77-1.4-.86-1.5a2.23,2.23,0,0,1-.46-1.75c0-.5.11-3.2-.76-2.88s-.79,1.08-1.15,1.81c-.16.31-.83,1.12-1.37.89s-.35-1.26-.35-1.64c0-1.17.46-2.28.5-3.42,0-.55-.29-2.26-1.27-2-.46.13-.66,1.31-.73,1.69-.22,1.23-.41,2.48-.62,3.72-.06.36,0,1.21-.24,1.47-1,1-1.34-1.21-1.65-1.58-.62-.74-1.66-.6-1.54.39.09.79,1.56,2.07.51,2.54-.29.13-.64-.18-1,.08s-.27.88-.48,1.17c-.69.93-.77-.18-1.07-.81s-.67-.76-.61-1.54a13.16,13.16,0,0,0,.17-2.45c-.09-.83-.34-1.82-1.29-1.12s-.54,1.67-.57,2.63a7.23,7.23,0,0,1-.51,2.95c-.48.73-.64-.26-.78-.84-.19-.79-.16-2.31-1.5-2.34-1.69,0-.5,1.51-1,2-.28.28-.87,0-1.15.36s.08.87,0,1.18.25.4-.31.45-.53-.61-.6-1c-.17-.93-.18-2.16-.87-2.94-.91-1-1.54.37-1.47,1.22.09,1.09.9,5.08-1.76,3.84-.61-.28-.43-.06-.5-.7a5.69,5.69,0,0,1,.24-1.63,10.63,10.63,0,0,1,.94-2.94c.18-.32.41-.37.42-.72a4,4,0,0,0-.76-1.59c-.82-.85-1.45.33-1.93.93s-.68,1.22-1.1.6c-.27-.37.68-2.51.77-3.07.13-.8.51-2.09-.34-2.71s-.81-.13-1.19-.81a6.43,6.43,0,0,1-.43-1.7c-.13-.49.1-.66-.61-.75-.47-.06-.34-.11-.63.34a8.69,8.69,0,0,0-.48,2.62c-.31,1.71-.7,4-1.82,5.41-.31.38-.55-.85-.55-.88a6.17,6.17,0,0,0,0-1.37c-.09-.44-.22-.89-.31-1.33-.12-.64.12-1.44-.06-2-.44-1.44-1.61-.3-1.8.58s.08,2.1-.06,3.1c-.12.78-.42,2-1.15,1-.46-.64-.25-1-1.13-1.29A2,2,0,0,0,713,173c-.71.8-.36,2.34-.21,3.32a15,15,0,0,1,.1,3.28c0,.42.16,3.43-.77,3.1,0,0-.91-2.84-.93-2.89a9.83,9.83,0,0,1-.21-3c0-.9.59-3.5-.61-4-1-.41-1.55,1.21-1.74,1.77-.4,1.18.06,2.55.08,3.81s-.67,1.75-.13,2.87c.36.75,1.76,2.71,1,3.38s-1.36-1.57-1.49-2.16c-.21-.93-.79-3.25-2-1.41a3.72,3.72,0,0,0-.38,2.7,4.53,4.53,0,0,1,.25,1.34c0,.12-.41,1.88-.38,1.89-1.64,0,.11-4.85,0-5.42a1.9,1.9,0,0,0-1-1.19c-.19-.09-.61,0-.74-.13s-.19-.49-.42-.72c-1-1-1.48.71-1.86,1.21a8.77,8.77,0,0,1-1.47-2.08c-.05-.77.85-1.24.86-2,0-1.35-1-1.57-2-1a6.85,6.85,0,0,0-1.48.82c-.23.2-.29.6-.61.54a17.46,17.46,0,0,1-.86-2.23c.06-.58,1.14-1.34,1.55-1.82.76-.9,1.47-1.67.67-2.81-.31-.45-1.64-2-2.21-1.63.52-.37.17-1.64-.39-1.94-.81-.43-1.3.54-2,.17s0-1.29,0-1.81-.07-.64-.9-1.12c-1.64-.93-2.18.31-2.41,1.69-.1.58-.68,1.68-.9.66-.19-.8.71-1.38-.77-1.4a6.62,6.62,0,0,0-3.58,1.29c-.49.37-1.37,1.43-1.82.1-.24-.72.43-1.25.95-1.59a9.67,9.67,0,0,0,2.77-2.16c.29-.4.85-1.36.56-1.85a.94.94,0,0,0-1.27-.3c-.67.3-1.14,1.13-1.72,1.56a5,5,0,0,1-1.5.74,16.5,16.5,0,0,0,2.41-5.38c.13-.65.5-2.2-.72-2-.83.12-1.8,3.36-2.1,3.26s.65-6.48.7-7.17c0-.48.29-.56-.16-.9a3.26,3.26,0,0,0-1.09-.22c-.62,0-.65.29-.9.82a13.27,13.27,0,0,0-1.18,3.66c-.11.67-.47,5.65-1.8,5.15-.73-.27.05-2.05-.43-2.59-.32-.34-.61-.22-.84-.63s.32-.77-.29-.91c-1.09-.24-1.2,2.91-1.36,3.59-.62-.35-.94,0-1.06.49-.08.34.3.59,0,.9s-.23,0-.54-.09c-.6-.22-.33-.51-1.17-.27a4,4,0,0,0-1,.49c-.55.35-1.45,1-1.9.2-.27-.48.06-1.61.21-2.11s.42-1.34,0-1.82a1.44,1.44,0,0,0-2.13.2c-.64.78-.93,1.76-1.49,2.56,0,.08-.29-.2-.3-.22-.21-.3.25-.8.24-1.08,0-.44-.33-.54-.44-.85-.23-.62.15-1.29.31-1.87a7.86,7.86,0,0,0,.26-2.94c-.07-.63-.14-1.16-.82-1.49-1.16-.57-1.35.38-1.56,1.1a3.59,3.59,0,0,1-.73,1.74c-.15.17-.39.14-.53.32s-.15.54-.22.81c-.21.87-.5,1.73-.7,2.61-.09.4,0,1.32-.4,1.47s-1.21-.64-1.66-.33c-.61.44.11,1.29-1,1.57-1.75.46-.27-1.06.1-1.59a4.83,4.83,0,0,0,.79-1.42,1.43,1.43,0,0,0,0-1.11c-.17-.44-.28,0-.42-.06-.46-.18.3-3.11.24-3.53a1.64,1.64,0,0,0-.66-1.13c-.17-.16-.45-.21-.62-.35s-.23-.47-.41-.61a1.78,1.78,0,0,0-2.7.95c-.16.54-.15,1.14-.31,1.69-.11.35-1,1.53-.91,1.83-.32-1.16,1.48-3.72-.46-4.09-.82-.15-1.13.24-1.35.9-.11.33,0,.77-.17,1.07-.28.5-.06.1-.69.4a.77.77,0,0,0-.49-.1,1.68,1.68,0,0,0-.3.4,2.87,2.87,0,0,0-.59.94,4.12,4.12,0,0,0,.05,2.06c.13.92.25,1.84.4,2.76a1.51,1.51,0,0,0-1.57.12c-1.07.65-1.41,1-.35,1.92.72.66,1.38,1.1,1.38,2.07a9.92,9.92,0,0,1-.28,2c0,.08-.26,1.22-.24,1.21-.36.14-1.55-.54-1.85-.79-.57-.48-.94-1.24-1.46-1.78a16.72,16.72,0,0,0-1.46-1c-.29-.26-.44-.65-.75-.93s-.62-.33-.71-.55c0,0,0-.77,0-.83,0-.29,0-.57,0-.87s.19-1.5-.49-1.82c-1.37-.64-1.45,3.15-1.59,3.6-.29.94-.88.35-1.41.84-.31.29-.42,1.34-.57,1.73a8.37,8.37,0,0,1-1.35,2.28l-.07.08c0-.34.5-1.72.54-2-1.25,0-.22-1.06.09-1.37a9,9,0,0,0,1.25-1.77c.72-1.19,2-2.77,1.87-4.23s-1.83-.36-2.34.3a11.84,11.84,0,0,0-1.55,3.15c.06-.57.11-1.15.2-1.72,0-.21.07-.44.08-.66,0,0,.2-.11.19-.2,0-.25-.27-.45-.33-.69-.17-.64.56-2.33.19-2.74a4.81,4.81,0,0,0-1.53-.2c-.64.35-.75,2.38-.83,3a13.13,13.13,0,0,0,.09,3.31c-.16-1.2-.33-2.41-.49-3.61a1.74,1.74,0,0,0-.29-1c-.34-.41-1.14-.76-1.44-.15s.31,2.39.3,3.08c0,.29-.18,3.62-.07,3.63a1.28,1.28,0,0,1-.43-.2.62.62,0,0,0-.22-.35.57.57,0,0,0-.42-.1,2.23,2.23,0,0,1-.25-.21c-.56-.54-.52-1.24-.85-1.87.06-.2.12-.39.17-.59a48,48,0,0,0,1.4-5.71,12,12,0,0,0,.42-2.35c-.06-1-1-1.25-.88-2.29.09-.52.37-2.38-.74-1.73-.72.42-.84,2.45-1.14,3.27-.44,1.19-1.11,2.27-1.61,3.43-.15.36-1.56,2.58-1.54,2.6-.26-.32.3-1.73.36-2,.15-.71.27-1.44.38-2.16.16-1.06.29-2.12.43-3.18s.3-2.15.48-3.22c.09-.5.79-2.38.47-2.8-.84-1.11-1.44.45-1.66.86a25.69,25.69,0,0,0-1,3.66c-.61,1.77-1,3.62-1.78,5.34a12.8,12.8,0,0,1-1.13,1.66c-.1.16-.3.84-.5,1a14.48,14.48,0,0,0,.08-3c0-.81,0-1.61.06-2.42,0-.43.35-1.29.2-1.72s-.36-.26-.7-.52-.24-.45-.35-1,.26-.14-.17-.49a3.7,3.7,0,0,0-.91-.19c-1.18.43-.58,3.61-.71,4.57a14.5,14.5,0,0,1-.74,2.57,11.22,11.22,0,0,0-.28,2.85,11.91,11.91,0,0,0-.16-1.76.2.2,0,0,0,0-.11c-.17-1.08-.44-2.19-.83-2.22-.74-.06-1.24,3-1.24,3.84a1.73,1.73,0,0,0-.23.24,10,10,0,0,0-.76,1.95,13.92,13.92,0,0,1,.1-5.64c.07-.49.27-.94,0-1.35-.5-.78-1.1-.34-1.44.26a7.89,7.89,0,0,0-.46,2.81c-.1.9,0,2.48-.59,3.23-.28.38.11.21-.45.28a2.49,2.49,0,0,1-1.44-.55c-.25-.35.22-.82.11-1.15s-.4-.22-.58-.46c-.86-1.16.91-3.28-.66-4-1.2-.53-1.4,1.44-1.48,2.19-.16,1.45-1.29,1.22-2,2.36-.3.48-.4,1.89-1,1.82s.1-1.74-.43-2.18a7.9,7.9,0,0,1,.27-2.16c.26-.74.62-1.48,0-2.28-.31-.45-.42-.31-.69-.79a5,5,0,0,1-.55-2.09c0-.46.37-1.06,0-1.5-.14-.16-1-.51-1.25-.35s0,.47-.07.59a5.81,5.81,0,0,1-.1.85c-.09.18-.37.26-.45.45s.06,1.95-.49,1.65c-.93-.51,1.33-2-.38-2.24-.81-.1-1.63,1.83-1.93,1.68s0-1.94.07-2.33c.06-.65.62-2.31.21-2.84-1-1.32-2,1.18-2.15,1.69-.34,1.33-.52,2.69-.91,4a10.37,10.37,0,0,1-1.16,3c-1,1.43-.71-.4-.62-1.16s.73-2.42-.09-3.14c-1-.9-1.63,1.3-1.76,2-.4,2.33.13,4.45-1.18,6.63-.13.2-.29.53-.49.83l-1.33-.46a1,1,0,0,1,.09-.38c.37-.73,1-.92,1.14-1.84,0-.27.23-1.05,0-1.34-.35-.59-1.29-.49-1.59-1.1a10.7,10.7,0,0,1,0-1.14,15.37,15.37,0,0,1,.15-1.92l.18-1.69c.09-.73.39-1.44.45-2.2,0-.32.14-1.5-.07-1.74-.6-.69-1.36.36-1.51.83-.43,1.33-.59,2.87-.93,4.26-.2.82-.1,1-1,.62,0,0-1.43-.53-1.34-.24-.1-.33,1.26-1.27,1.49-1.63a9.51,9.51,0,0,0,.82-1.7c.3-.77.66-2.91-1-2.24-1.08.42-1.23,2.15-2.26,2.57s-.65-.87-.47-1.4a15.28,15.28,0,0,0,.69-3.37c.1-.79.84-2.76.23-3.45-1.48-1.67-2.71,4.91-3.22,5-.1,0-.83-2.43-1.84-2.18s-.18.95-.13,1.38c.11.86-.09.07-.51.37-.76.54-.71,1-.17,1.57.29.33.49.46.58.85s-.17,1.8-.54,1.82c.28,0-.84-1.36-.93-1.45a2.24,2.24,0,0,1-.53-1.74c0-.49,0-3.19-.9-2.84s-.74,1.12-1.06,1.86c-.15.32-.78,1.16-1.33.95s-.41-1.23-.43-1.62c0-1.17.37-2.29.35-3.44,0-.55-.39-2.25-1.36-1.92-.46.15-.59,1.34-.65,1.72-.17,1.24-.3,2.5-.45,3.74,0,.37.06,1.22-.18,1.48-.91,1-1.39-1.14-1.71-1.49-.65-.72-1.69-.54-1.53.45.13.79,1.65,2,.63,2.52-.29.14-.65-.16-1,.12s-.22.89-.42,1.19a.42.42,0,0,0-.06.08c-.28-.11-.55-.24-.83-.33a4.9,4.9,0,0,0-.21-.51c-.31-.58-.71-.72-.69-1.51a13.38,13.38,0,0,0,.06-2.46c-.13-.82-.42-1.8-1.33-1.06s-.47,1.69-.46,2.65a11.75,11.75,0,0,1-.12,2.12c-.38-.09-.75-.14-1.13-.2-.19-.82-.33-2-1.54-2-1.4,0-.8,1-.82,1.71-.84-.08-1.67-.13-2.47-.14a3,3,0,0,0-.68-1.34c-.95-1-1.52.45-1.41,1.29v.05l-1.66.05a7.7,7.7,0,0,1,.52-1.49c.15-.32.39-.38.39-.73a4.16,4.16,0,0,0-.84-1.55c-.85-.81-1.44.39-1.88,1s-.63,1.25-1.08.65c-.28-.36.57-2.54.63-3.1.09-.81.42-2.11-.46-2.7-.72-.48-.82-.09-1.23-.75a6.47,6.47,0,0,1-.5-1.68c-.15-.48.07-.66-.64-.72-.48,0-.35-.09-.62.37a8.86,8.86,0,0,0-.36,2.64c-.24,1.72-.52,4.05-1.58,5.48-.29.39-.58-.82-.58-.85a5.88,5.88,0,0,0,0-1.37c-.11-.44-.26-.87-.36-1.32-.15-.63,0-1.43-.16-2-.5-1.42-1.62-.23-1.77.67s.18,2.08.08,3.09a3.11,3.11,0,0,1-.33,1.25,8.55,8.55,0,0,1-.19-1.87,7.36,7.36,0,0,1-1.16.77,1,1,0,0,0-.61-.32,1.65,1.65,0,0,0-2.21,1.76c-.45.2-.94.4-1.45.6,0-.86-.21-1.67-.84-1.89-1-.36-1.49,1.27-1.66,1.85a3.21,3.21,0,0,0-.12.93,30.41,30.41,0,0,1-7.44,1.19c-.2-1.06-1.09-1.21-2-.69-.33.19-.7.38-1,.6-.49,0-1-.06-1.47-.13a6,6,0,0,1-.48-1.21c0-.57,1.08-1.38,1.47-1.88.71-.93,1.39-1.74.54-2.85-.34-.43-1.73-2-2.29-1.52.51-.39.1-1.64-.47-1.92-.82-.39-1.27.59-2,.26s-.08-1.29-.08-1.81c0-.67-.09-.63-.94-1.07-1.68-.86-2.17.4-2.33,1.79-.07.58-.6,1.71-.88.7-.21-.79.65-1.41-.82-1.37a6.72,6.72,0,0,0-3.52,1.45c-.48.4-1.31,1.5-1.82.18-.27-.7.38-1.26.89-1.62a9.93,9.93,0,0,0,2.66-2.28c.27-.41.79-1.41.48-1.88a.94.94,0,0,0-1.29-.24c-.66.33-1.08,1.17-1.65,1.63a4.84,4.84,0,0,1-1.46.81,16.63,16.63,0,0,0,2.17-5.48c.09-.66.4-2.22-.81-2-.83.16-1.66,3.44-1.95,3.36-.45-.12.35-6.51.37-7.2,0-.48.26-.57-.2-.89a3.33,3.33,0,0,0-1.1-.17c-.61.07-.63.31-.87.86a13.33,13.33,0,0,0-1,3.71c-.08.67-.22,5.67-1.57,5.22-.74-.24-.05-2-.55-2.56-.33-.34-.62-.2-.87-.59s.28-.79-.32-.9c-1.1-.19-1.07,3-1.2,3.64-.63-.32-1,0-1,.55-.06.34.33.57,0,.89s-.22.05-.55-.06c-.6-.2-.35-.5-1.17-.22a3.93,3.93,0,0,0-.94.53c-.54.37-1.4,1.05-1.89.29-.29-.47,0-1.61.11-2.12s.36-1.35-.09-1.82a1.44,1.44,0,0,0-2.11.3c-.61.81-.86,1.8-1.38,2.63-.05.08-.3-.2-.31-.21-.23-.29.21-.82.19-1.09,0-.44-.35-.52-.48-.83-.25-.61.1-1.3.23-1.88a7.89,7.89,0,0,0,.12-3c-.1-.62-.19-1.15-.88-1.45-1.18-.52-1.33.43-1.51,1.16a3.63,3.63,0,0,1-.65,1.78c-.14.17-.38.15-.52.34s-.12.55-.18.82c-.17.88-.41,1.75-.57,2.64-.08.41,0,1.32-.35,1.49s-1.23-.59-1.66-.25c-.6.46.16,1.27-.92,1.6-1.72.54-.31-1,0-1.58a4.88,4.88,0,0,0,.73-1.46,1.44,1.44,0,0,0-.08-1.11c-.19-.43-.28,0-.43,0-.46-.16.16-3.12.08-3.54a1.56,1.56,0,0,0-.7-1.1c-.18-.15-.46-.18-.64-.32s-.25-.46-.44-.59a1.77,1.77,0,0,0-2.65,1.07c-.14.55-.1,1.15-.24,1.71-.08.35-.91,1.56-.82,1.86-.37-1.14,1.31-3.78-.64-4.06-.83-.12-1.12.29-1.31,1-.09.33,0,.77-.13,1.07-.25.51,0,.1-.66.43a.87.87,0,0,0-.5-.08,2.36,2.36,0,0,0-.28.42,2.77,2.77,0,0,0-.54,1,4,4,0,0,0,.14,2.06c.16.86.31,1.71.49,2.56,0,0-.05.1-.07.16a1.49,1.49,0,0,0-1.46.21l-.31.22c-.18-1.44.78-4.09.9-4.57a10.58,10.58,0,0,0,.23-3.85c-.06-.61,0-.84-.69-1.16a5.32,5.32,0,0,0-1.35-.28c-.66.12-.41.3-.57.75-.24.65-1.73,6.91-2.31,6.84-.38,0-.1-3.43-1-3.9-1.33-.69-1.57.88-1.71,1.53a14,14,0,0,0,.45,6,6.4,6.4,0,0,1-1.4-1.34c-.49-.65-.67-1.61-1.31-2.18a1.4,1.4,0,0,0-1.61-.29c-.54.31-.3,1.44-.14,1.93a10.73,10.73,0,0,0,2.25,3.2c.46.54,1,1.32.41,1.86-1.1,1-1.65-.33-2.06-.9a9,9,0,0,0-3.57-2.76c-1.72-.64-.93.29-1.49.94-.71.82-.9-.43-.76-1,.34-1.36.25-2.73-2-2.61-1.17.07-1.27,0-1.52.62s.18,1.61-.78,1.65-1.09-1.06-2.21-1c-.77,0-1.73,1-1.29,1.6-.48-.63-2.7.22-3.26.49-1.41.69-.93,1.71-.44,2.86.26.63,1.18,1.8,1,2.35a1.91,1.91,0,0,1-.4.41c-.36-.24-.73-.43-1.09-.68-.47.24-.94.41-1.4.61l-.89-.86c-1-.93-2.23-1.17-2.81.06-.32.68.37,1.46.13,2.12q-1.39.4-2.76.66c-.11-.74-.32-1.59-1.49-1.23-.36.11-.4.4-.8.47-.19,0-.65-.21-.91-.21a2.34,2.34,0,0,0-1.66.64,3.47,3.47,0,0,0-.2.86H435a2.55,2.55,0,0,0,.11-1.54c-.59-2.21-2.27-.36-2.91.4a7.35,7.35,0,0,1-1,1c-.54-.06-1.08-.12-1.61-.2.37-.8,2.06-1.64,2.66-2.06,1.1-.77.57-1.63,1.09-2.66s1.7-2.19,1.75-3.44c0-.6.1-2.3-1.24-2.39-1.6-.09-2,2.53-2.43,3.35a8,8,0,0,1-1.55,2.65s-2.31,2.22-2.33,2.22c-1.22-.12.3-2.78.45-3.17a13,13,0,0,1,1.55-2.94c.59-.83,1.66-2.07,1.2-3.12a2.85,2.85,0,0,0-2-1.23c-1.12-.17-1.05.29-1.86.67-1.29.6-1.09-.67-.88-1.43.26-1,1.08-1.92,1.26-2.85s-.68-2.44-1.81-1.33c-.47.46-.54,1.28-1,1.81-.29.37-.63.72-.93,1.08a5.26,5.26,0,0,0-.57,1.25s-.82,1-1,.56c-.7-1.76-.14-4,.24-5.73.15-.66.77-1.91.59-2.6-.15-.53,0-.43-.59-.59-.86-.23-.67,0-1,.41s-.64,1-1.23,1.36-.69,0-1.72.21c-1.25.19-1.37,1.53-1.57,2.31-.15.56,0,2.92-.44,3.15-.77.37-.8-.45-1-1-.29-.76-.51-2.11-1.82-1.7a4.37,4.37,0,0,0-1.58,1.11c-.13.32.12.47.18.84a8.74,8.74,0,0,1-.18,3.1,4.93,4.93,0,0,1-.43,1.58c-.37.56-.07.44-.89.42-3.6-.05-.93-3.32-.36-4.28.44-.73.33-2.3-1.17-1.76-1.13.4-1.68,1.52-2.28,2.3-.26.34-.43,1-1.14.66s-.18-.27-.16-.54.66-.73.5-1.08-1-.46-1.18-.84c-.38-.7,1.67-1.59-.3-2.31-1.56-.56-2.18.83-2.75,1.47-.41.47-1,1.3-1.26.42a5.88,5.88,0,0,1,.69-2.92c.38-.89,1.22-1.65.48-2.64s-1.51-.27-2,.45a10.31,10.31,0,0,0-.87,2.31,1.2,1.2,0,0,1-.31.47c-.33-.09-.52.11-.66.41a3.61,3.61,0,0,0-.41.24c-.61.44-1.19,1.42-1.58.27-.12-.36.21-.93,0-1.28s-.83-.26-1.12-.51c-1-.89,1.25-1.41,1.7-2.09.57-.85-.58-1.44-1.61-1-.51.19-1.92,2-2.59.7-.17-.35.27-1.09.36-1.45.29-1.22.62-2.44.9-3.66.08-.38.37-1.54-.11-1.86-1-.7-2.11.73-2.33,1.23-.45,1.07-.39,2.28-.9,3.35-.17.35-.54,1.36-1.11,1.33-.74,0-1.15-1.06-1.2-1.42-.1-.81.46-1.38-.54-2.15s-1.91,1.83-2.13,2.28c-.36.72-.51,1.11-1.29,1.39-.14.06-2,.86-1.64,1-.43-.17-.15-1.67,0-1.92s.54-.36,1-.55c.86-.34,1.08-.72.4-1.53-.38-.44-.91.2-.46-.55.23-.38,1.36-.75.38-1.33s-2.89,1.35-3,1.28c-.54-.33.52-6.94-1.86-6-1,.4-.85,2.53-1,3.3a12.37,12.37,0,0,0-.48,3.41c0,.57.06,2-1.08,1.11s-.56-2.47-1.67-3.29c-1.75-1.32-2.14.83-2.08,1.66a8.35,8.35,0,0,0,.3,1.91c.13.4,1.22,1.67,1.13,2a6.87,6.87,0,0,0-1.66-.24,4,4,0,0,1-.57,0l-.35-.15c-.08-.14,0-.37,0-.78.14-1.43.54-2.93.54-4.34,0-.49-.49-1.77-1.46-1.37-.34.14-.66,1.27-.75,1.59-.22.73-.13,1.51-.31,2.22-.14.55-.29,1.1-.43,1.64a13.05,13.05,0,0,1-.52,1.75c-.31-.2-.63-.25-.8.12a2.87,2.87,0,0,0-.05,1.16,4.68,4.68,0,0,1-1.14.08c.34-1.35.65-2.71.88-4.15a16.62,16.62,0,0,0,.46-2.75c0-1.26-1-1.79-.81-3,.09-.6.42-2.79-.69-2.3-.72.31-.89,2.75-1.2,3.67a21.75,21.75,0,0,1-.95,2.2,1.32,1.32,0,0,0-.47,0c-1.24.34-1.11,2.1-1.31,2.89a9.76,9.76,0,0,1-.3,1.06l-.21.37h0c-.24-.46.34-2,.41-2.39.16-.84.3-1.7.42-2.56.18-1.26.34-2.53.5-3.79s.35-2.56.55-3.82c.09-.59.83-2.7.53-3.3-.81-1.61-1.43.14-1.66.58-.6,1.15-.67,2.82-1.12,4.22-.13.42-.25.87-.37,1.3a1,1,0,0,0-1.54-.62c-.69.33-.66,2.09-.84,2.72-.1.35-.21,1.84-.67,2.13v-.27c0-1,0-2,.13-3a8,8,0,0,0,.23-2.09c-.15-.64-.35-.42-.67-.82-.46-.57-.23-.62-.33-1.35s.26-.12-.16-.66a4.38,4.38,0,0,0-.89-.48c-1.18.23-.66,4.36-.81,5.52a16.89,16.89,0,0,1-.71,2.76c-.45-.2.21-1.58.2-1.69s-.32-.4-.35-.6.17-.57.21-.83.22-.48.14-.58a2.73,2.73,0,0,0-1.6-.18c-.64.25-.45,1-.6,1.39a4.77,4.77,0,0,1-1.45,1.72l-.12.07c0-.3.08-.61.12-.9a3,3,0,0,0,0-1.71c-.47-1.1-1.09-.7-1.44,0a11.05,11.05,0,0,0-.52,3.45c-.12,1.1-.11,3-.64,3.9a.76.76,0,0,0-.29.34l-.2,0a2.88,2.88,0,0,1-1.37-.95l-.06-.16c-.15-.47.24-.93.15-1.35s-.39-.37-.56-.71c-.83-1.67,1-4-.56-5.2-1.06-.85-1.37,1-1.49,2.13-1,.18-1,1.14-1.2,2a2.33,2.33,0,0,0-.9.9,2.89,2.89,0,0,0-.18.49c-.22,0-.44,0-.56.14s.11.89-.31,1.12a1,1,0,0,1-.29.07c-.21-.64.3-2-.12-2.6a12.13,12.13,0,0,1,.32-2.72A3.56,3.56,0,0,0,341,107c-.3-.64-.41-.49-.67-1.17a9.35,9.35,0,0,1-.5-2.82c0-.59.4-1.28,0-2-.15-.24-1-.9-1.25-.74s-.05.6-.08.75a7.42,7.42,0,0,1-.13,1.08c-.08.22-.37.26-.45.48s0,2.54-.54,2c-.92-.87,1.38-2.32-.31-3-.82-.32-1.68,2-2,1.75s.08-2.51.13-3c.07-.84.67-2.87.28-3.65-1-2-2.05,1.08-2.2,1.71-.37,1.67-.58,3.4-1,5.06a14.21,14.21,0,0,1-1.23,3.66c-1,1.68-.71-.67-.6-1.64s.8-3,0-4.15c-1-1.41-1.67,1.37-1.81,2.31-.46,3,0,5.89-1.36,8.51l-.26.53a5.41,5.41,0,0,0-1.2-.13l-.38-.24a2.12,2.12,0,0,1,.11-.49c.39-.9,1-1,1.19-2.22a4.52,4.52,0,0,0,.09-1.77c-.35-.85-1.29-.89-1.57-1.76,0-.12,0-1.35,0-1.51,0-.84.11-1.69.2-2.51s.15-1.48.23-2.2c.1-1,.42-1.83.5-2.82a7.2,7.2,0,0,0,0-2.32c-.58-1-1.38.19-1.54.77-.46,1.68-.66,3.7-1,5.48-.22,1-.12,1.3-1,.63,0,0-1.42-1-1.34-.58-.09-.46,1.3-1.45,1.55-1.88a13.18,13.18,0,0,0,.86-2.1c.32-.95.73-3.73-1-3.19-1.1.34-1.29,2.62-2.34,3s-.64-1.28-.44-1.95a24.63,24.63,0,0,0,.78-4.37c.11-1,.91-3.52.32-4.56-1.46-2.56-2.86,6-3.38,6.09-.1,0-.78-3.43-1.8-3.28s-.21,1.23-.16,1.82c.09,1.18-.09.09-.53.41-.77.58-.74,1.17-.21,2.08a3.07,3.07,0,0,1,.57,1.25c.07.42-.22,2.39-.59,2.35.28,0-.81-2-.9-2.13a4.07,4.07,0,0,1-.5-2.44c0-.68,0-4.32-.84-4s-.77,1.37-1.12,2.31c-.15.41-.81,1.43-1.36,1s-.39-1.76-.4-2.28c0-1.6.43-3,.44-4.61,0-.74-.34-3.12-1.33-2.87-.47.12-.64,1.71-.7,2.22-.2,1.66-.36,3.34-.55,5a6.47,6.47,0,0,1-.21,2c-.94,1.25-1.39-1.81-1.7-2.35-.65-1.09-1.7-1-1.56.35.12,1.11,1.63,3,.58,3.55-.29.15-.65-.32-1,0s-.25,1.18-.46,1.55a.88.88,0,0,1-.06.1c-.28-.19-.56-.41-.83-.59-.07-.25-.13-.51-.21-.73-.29-.84-.7-1.11-.66-2.18a24.69,24.69,0,0,0,.12-3.36c-.12-1.16-.4-2.55-1.34-1.69s-.51,2.25-.51,3.57a24.54,24.54,0,0,1-.17,2.89c-.39-.17-.77-.3-1.15-.45-.17-1.15-.29-2.87-1.52-3-1.42-.18-.84,1.32-.87,2.23a24.31,24.31,0,0,0-2.51-.57,5.41,5.41,0,0,0-.66-2c-.95-1.51-1.55.4-1.46,1.58V90c-.57-.07-1.14-.13-1.69-.17a11.19,11.19,0,0,1,.56-2c.16-.42.4-.47.41-1a7.5,7.5,0,0,0-.83-2.28c-.84-1.26-1.46.33-1.93,1.13-.36.63-.66,1.66-1.11.76-.28-.55.63-3.46.71-4.24.11-1.12.46-2.88-.42-3.83-.73-.78-.83-.25-1.24-1.23a12.74,12.74,0,0,1-.48-2.43c-.15-.69.08-.91-.64-1.1-.48-.12-.36-.17-.64.42a15.81,15.81,0,0,0-.42,3.65c-.27,2.38-.6,5.6-1.71,7.47-.3.51-.58-1.23-.59-1.28a11.23,11.23,0,0,0,0-1.92c-.11-.63-.25-1.26-.35-1.9-.14-.91.07-2-.13-2.85-.49-2.06-1.65-.53-1.81.7s.14,3,0,4.36a5.37,5.37,0,0,1-.36,1.72,15.26,15.26,0,0,1-.16-2.65,7.11,7.11,0,0,1-1.2.93,1.24,1.24,0,0,0-.62-.53,1.58,1.58,0,0,0-1.92.51,3.41,3.41,0,0,0-.36,1.71c-.47.23-1,.45-1.5.67,0-1.21-.19-2.38-.83-2.77-1.05-.62-1.55,1.65-1.73,2.44a6.1,6.1,0,0,0-.13,1.3,22.73,22.73,0,0,1-7.64.94c-.19-1.51-1.1-1.81-2.05-1.16-.34.24-.73.48-1.07.77-.5-.1-1-.17-1.5-.31a11.27,11.27,0,0,1-.49-1.77c.05-.82,1.13-1.89,1.54-2.57.74-1.26,1.45-2.36.59-4-.34-.65-1.75-3-2.32-2.38.52-.52.12-2.34-.47-2.79-.84-.63-1.31.73-2,.19s-.08-1.85-.06-2.59c0-1-.09-.92-1-1.62-1.72-1.38-2.23.4-2.42,2.38-.08.82-.64,2.39-.91.93-.21-1.16.69-2-.83-2a5.55,5.55,0,0,0-3.64,1.83c-.49.54-1.36,2.07-1.87.14a2.32,2.32,0,0,1,.92-2.28,10.89,10.89,0,0,0,2.77-3.09c.28-.57.83-2,.52-2.66a.84.84,0,0,0-1.33-.44c-.68.42-1.13,1.6-1.72,2.22a4.59,4.59,0,0,1-1.51,1.07,28.5,28.5,0,0,0,2.29-7.74c.1-.94.43-3.16-.82-2.93-.85.16-1.74,4.82-2.05,4.69s.43-9.35.46-10.33c0-.69.27-.8-.2-1.3a2.58,2.58,0,0,0-1.13-.33c-.64.06-.67.41-.91,1.19a23.92,23.92,0,0,0-1.07,5.27c-.09,1-.27,8.16-1.67,7.44-.76-.39,0-3-.55-3.73-.33-.5-.63-.32-.89-.9s.3-1.13-.33-1.31c-1.13-.34-1.12,4.2-1.26,5.19-.65-.49-1,0-1.08.73-.06.49.34.85,0,1.3s-.23.06-.56-.11c-.62-.32-.36-.74-1.21-.38a3.63,3.63,0,0,0-1,.73c-.56.52-1.45,1.46-2,.34a7.39,7.39,0,0,1,.13-3.06c.11-.67.38-1.94-.09-2.63-.68-1-1.76-.43-2.19.35-.62,1.15-.89,2.58-1.43,3.76-.05.11-.31-.29-.32-.32-.23-.42.22-1.17.2-1.57,0-.64-.36-.76-.49-1.2a6.31,6.31,0,0,1,.25-2.73,15.92,15.92,0,0,0,.13-4.26c-.1-.9-.19-1.67-.91-2.13-1.22-.78-1.37.6-1.56,1.65a6.59,6.59,0,0,1-.68,2.55c-.15.25-.4.21-.54.49a3.64,3.64,0,0,0-.19,1.18c-.18,1.26-.43,2.53-.6,3.81-.08.58,0,1.91-.36,2.14s-1.27-.87-1.72-.39c-.62.66.17,1.85-.95,2.31-1.78.75-.32-1.52,0-2.3a8.08,8.08,0,0,0,.76-2.1,2.83,2.83,0,0,0-.08-1.6c-.2-.63-.29,0-.44-.07-.48-.24.17-4.52.09-5.13a2.6,2.6,0,0,0-.73-1.6c-.19-.21-.47-.27-.66-.48s-.25-.66-.45-.86c-1.1-1.12-2.49.1-2.75,1.54-.14.79-.1,1.66-.25,2.46-.09.51-1,2.27-.85,2.7-.38-1.65,1.36-5.48-.67-5.89-.85-.17-1.15.42-1.35,1.4a10.92,10.92,0,0,1-.13,1.55c-.26.74-.05.15-.69.62a.63.63,0,0,0-.51-.11,3.11,3.11,0,0,0-.29.61,4.84,4.84,0,0,0-.57,1.4,8.34,8.34,0,0,0,.15,3c.17,1.24.33,2.47.51,3.7,0,.08-.05.15-.07.23a1.17,1.17,0,0,0-1.5.32l-.33.32c-.19-2.08.81-5.93.93-6.63a21.62,21.62,0,0,0,.24-5.58c-.07-.88,0-1.22-.72-1.67a3.82,3.82,0,0,0-1.4-.39c-.69.17-.42.43-.6,1.09-.24.94-1.77,10-2.37,9.94-.39-.06-.11-5-1.05-5.63-1.38-1-1.62,1.31-1.77,2.25a28.31,28.31,0,0,0,.49,8.64,7.58,7.58,0,0,1-1.45-1.92c-.51-.92-.7-2.31-1.37-3.11-.32-.39-1-1-1.66-.38s-.31,2.1-.14,2.81a16.23,16.23,0,0,0,2.34,4.55c.47.78,1,1.89.43,2.69a1.86,1.86,0,0,1-.39.4c-2.52-5.14-5.08-7-7.64-7.35a1.77,1.77,0,0,0-2.25-1.84c-1.21.14-1.32,0-1.57,1a11.41,11.41,0,0,0-.09,1.32c-.54.17-1.08.37-1.63.58-.35-.41-.69-.92-1.36-.85a2,2,0,0,0-1.37,2l-.35.14a2.49,2.49,0,0,0-1.29.24c-5.91.27-11.81-9.65-17.55-9.84-2.24,2.72-4.45,2.19-6.64.42,0,0,0-.09,0-.14.16-1.28-.74-3.39-1.89-1.67a0,0,0,0,0,0,0c-1-1-1.92-2.17-2.86-3.29a4.19,4.19,0,0,0,.09-1.54c-.15-.74,0-.61-.61-.76-.81-.19-.73.09-1,.59-1.62-1.77-3.21-3.16-4.78-3.24-11.18-27.17-21-6.93-27.94-14.83-7-.13-11.18,7.47-11.18-5.93,0-2.61-5-12.42-12.36-3.73-7.42-5.49-17.31-2.68-27.2-8.23-9.9,3.34-19.79-9-27.2-7.18C33.38,4.83,28.43,3.34,28.43,2,28.43,15,16-6.27,3.59,2,2.39,2.67,1.19,3.29,0,3.86v197.5H1917.54V179.12h0V94.81h0Zm-1552,87.16a5.13,5.13,0,0,0-.21-.74l0-.07a2.93,2.93,0,0,1,.2.57A1,1,0,0,1,365.55,124.14Zm893.82-.93c0-.09,0-.17,0-.26A1.09,1.09,0,0,1,1259.37,123.21Zm.17-3.43a2.77,2.77,0,0,1-.3,0c0-.11,0-.23,0-.35C1259.37,119.53,1259.45,119.66,1259.54,119.78Z"/></g></g></svg>